<?xml version="1.0" encoding="UTF-8"?>
<svg xmlns="http://www.w3.org/2000/svg" xmlns:xlink="http://www.w3.org/1999/xlink" width="400pt" height="300pt" viewBox="0 0 400 300" version="1.1">
<g id="surface1">
<path style="fill-rule:nonzero;fill:rgb(52.941176%,70.588235%,90.980392%);fill-opacity:1;stroke-width:2;stroke-linecap:butt;stroke-linejoin:miter;stroke:rgb(100%,100%,100%);stroke-opacity:1;stroke-miterlimit:10;" d="M 75.5 10 L 115.5 10 L 115.5 22 L 75.5 22 Z M 75.5 10 "/>
<path style=" stroke:none;fill-rule:nonzero;fill:rgb(40%,40%,40%);fill-opacity:1;" d="M 130.6875 20.160156 L 128.625 20.160156 L 127.515625 15.378906 C 127.472656 15.234375 127.429688 15.0625 127.390625 14.863281 C 127.359375 14.667969 127.320312 14.472656 127.28125 14.285156 C 127.238281 14.078125 127.203125 13.855469 127.171875 13.613281 C 127.128906 13.855469 127.082031 14.082031 127.03125 14.300781 C 127.019531 14.394531 127.003906 14.496094 126.984375 14.597656 C 126.960938 14.691406 126.941406 14.785156 126.921875 14.878906 C 126.898438 14.972656 126.878906 15.066406 126.859375 15.160156 C 126.835938 15.246094 126.816406 15.316406 126.796875 15.378906 L 125.6875 20.160156 L 123.640625 20.160156 L 121.515625 11.910156 L 123.265625 11.910156 L 124.296875 16.503906 C 124.359375 16.753906 124.410156 17 124.453125 17.238281 C 124.503906 17.480469 124.550781 17.691406 124.59375 17.878906 C 124.644531 18.109375 124.691406 18.324219 124.734375 18.519531 C 124.785156 18.238281 124.84375 17.957031 124.90625 17.675781 C 124.925781 17.5625 124.945312 17.441406 124.96875 17.316406 C 125 17.191406 125.023438 17.074219 125.046875 16.957031 C 125.078125 16.832031 125.101562 16.714844 125.125 16.597656 C 125.15625 16.484375 125.179688 16.386719 125.203125 16.300781 L 126.21875 11.910156 L 128.15625 11.910156 L 129.1875 16.300781 C 129.21875 16.394531 129.242188 16.5 129.265625 16.613281 C 129.285156 16.730469 129.304688 16.847656 129.328125 16.972656 C 129.359375 17.097656 129.382812 17.222656 129.40625 17.347656 C 129.425781 17.464844 129.445312 17.578125 129.46875 17.691406 C 129.519531 17.972656 129.566406 18.25 129.609375 18.519531 C 129.660156 18.300781 129.707031 18.078125 129.75 17.847656 C 129.800781 17.652344 129.851562 17.433594 129.90625 17.191406 C 129.957031 16.953125 130.007812 16.722656 130.0625 16.503906 L 131.0625 11.910156 L 132.8125 11.910156 Z M 135.03125 13.238281 L 135.03125 15.800781 L 139.25 15.800781 L 139.25 17.128906 L 135.03125 17.128906 L 135.03125 20.160156 L 133.296875 20.160156 L 133.296875 11.910156 L 139.390625 11.910156 L 139.390625 13.238281 Z M 145.625 20.160156 L 145.625 16.613281 L 142.03125 16.613281 L 142.03125 20.160156 L 140.296875 20.160156 L 140.296875 11.910156 L 142.03125 11.910156 L 142.03125 15.191406 L 145.625 15.191406 L 145.625 11.910156 L 147.359375 11.910156 L 147.359375 20.160156 Z M 121.5 9.296875 "/>
<path style="fill-rule:nonzero;fill:rgb(73.333333%,48.235294%,85.882353%);fill-opacity:1;stroke-width:2;stroke-linecap:butt;stroke-linejoin:miter;stroke:rgb(100%,100%,100%);stroke-opacity:1;stroke-miterlimit:10;" d="M 158.5 10 L 198.5 10 L 198.5 22 L 158.5 22 Z M 158.5 10 "/>
<path style=" stroke:none;fill-rule:nonzero;fill:rgb(40%,40%,40%);fill-opacity:1;" d="M 210.96875 20.160156 L 209.0625 17.019531 L 207.03125 17.019531 L 207.03125 20.160156 L 205.296875 20.160156 L 205.296875 11.910156 L 209.421875 11.910156 C 209.941406 11.910156 210.394531 11.96875 210.78125 12.082031 C 211.164062 12.199219 211.484375 12.363281 211.734375 12.582031 C 211.992188 12.792969 212.1875 13.046875 212.3125 13.347656 C 212.445312 13.652344 212.515625 13.988281 212.515625 14.363281 C 212.515625 14.675781 212.46875 14.964844 212.375 15.222656 C 212.28125 15.472656 212.148438 15.699219 211.984375 15.894531 C 211.828125 16.09375 211.632812 16.261719 211.40625 16.394531 C 211.1875 16.53125 210.945312 16.628906 210.6875 16.691406 L 212.921875 20.160156 Z M 210.765625 14.441406 C 210.765625 14.035156 210.632812 13.734375 210.375 13.535156 C 210.113281 13.339844 209.738281 13.238281 209.25 13.238281 L 207.03125 13.238281 L 207.03125 15.675781 L 209.296875 15.675781 C 209.554688 15.675781 209.773438 15.652344 209.953125 15.597656 C 210.140625 15.535156 210.289062 15.449219 210.40625 15.332031 C 210.53125 15.21875 210.617188 15.089844 210.671875 14.941406 C 210.734375 14.785156 210.765625 14.621094 210.765625 14.441406 Z M 215.890625 13.816406 L 215.890625 17.378906 C 215.890625 17.621094 215.910156 17.84375 215.953125 18.050781 C 215.992188 18.261719 216.054688 18.4375 216.140625 18.582031 C 216.234375 18.730469 216.347656 18.84375 216.484375 18.925781 C 216.628906 19.011719 216.804688 19.050781 217.015625 19.050781 C 217.210938 19.050781 217.390625 19.011719 217.546875 18.925781 C 217.710938 18.832031 217.851562 18.707031 217.96875 18.550781 C 218.09375 18.386719 218.1875 18.191406 218.25 17.972656 C 218.3125 17.746094 218.34375 17.496094 218.34375 17.222656 L 218.34375 13.816406 L 220 13.816406 L 220 18.738281 C 220 18.875 220 19.015625 220 19.160156 C 220 19.308594 220 19.449219 220 19.582031 C 220.007812 19.707031 220.015625 19.824219 220.015625 19.925781 C 220.023438 20.03125 220.035156 20.109375 220.046875 20.160156 L 218.46875 20.160156 C 218.46875 20.109375 218.460938 20.035156 218.453125 19.941406 C 218.441406 19.839844 218.429688 19.722656 218.421875 19.597656 C 218.421875 19.472656 218.414062 19.347656 218.40625 19.222656 C 218.40625 19.097656 218.40625 18.988281 218.40625 18.894531 L 218.375 18.894531 C 218.15625 19.375 217.875 19.730469 217.53125 19.957031 C 217.195312 20.175781 216.796875 20.285156 216.328125 20.285156 C 215.953125 20.285156 215.628906 20.222656 215.359375 20.097656 C 215.097656 19.964844 214.882812 19.792969 214.71875 19.582031 C 214.550781 19.363281 214.429688 19.109375 214.359375 18.816406 C 214.285156 18.515625 214.25 18.191406 214.25 17.847656 L 214.25 13.816406 Z M 225.453125 20.160156 L 225.453125 16.597656 C 225.453125 16.359375 225.429688 16.136719 225.390625 15.925781 C 225.347656 15.71875 225.28125 15.542969 225.1875 15.394531 C 225.101562 15.25 224.988281 15.136719 224.84375 15.050781 C 224.695312 14.96875 224.519531 14.925781 224.3125 14.925781 C 224.113281 14.925781 223.929688 14.972656 223.765625 15.066406 C 223.609375 15.152344 223.46875 15.277344 223.34375 15.441406 C 223.226562 15.597656 223.140625 15.792969 223.078125 16.019531 C 223.015625 16.25 222.984375 16.496094 222.984375 16.753906 L 222.984375 20.160156 L 221.34375 20.160156 L 221.34375 15.238281 C 221.34375 15.105469 221.335938 14.964844 221.328125 14.816406 C 221.328125 14.671875 221.320312 14.535156 221.3125 14.410156 C 221.3125 14.277344 221.304688 14.15625 221.296875 14.050781 C 221.296875 13.949219 221.296875 13.871094 221.296875 13.816406 L 222.859375 13.816406 C 222.867188 13.871094 222.875 13.949219 222.875 14.050781 C 222.882812 14.15625 222.894531 14.269531 222.90625 14.394531 C 222.914062 14.519531 222.921875 14.644531 222.921875 14.769531 C 222.929688 14.894531 222.9375 15 222.9375 15.082031 L 222.96875 15.082031 C 223.1875 14.59375 223.460938 14.238281 223.796875 14.019531 C 224.128906 13.800781 224.53125 13.691406 225 13.691406 C 225.382812 13.691406 225.707031 13.753906 225.96875 13.878906 C 226.226562 14.003906 226.441406 14.175781 226.609375 14.394531 C 226.773438 14.613281 226.894531 14.875 226.96875 15.175781 C 227.050781 15.46875 227.09375 15.785156 227.09375 16.128906 L 227.09375 20.160156 Z M 232.453125 20.160156 L 232.453125 16.597656 C 232.453125 16.359375 232.429688 16.136719 232.390625 15.925781 C 232.347656 15.71875 232.28125 15.542969 232.1875 15.394531 C 232.101562 15.25 231.988281 15.136719 231.84375 15.050781 C 231.695312 14.96875 231.519531 14.925781 231.3125 14.925781 C 231.113281 14.925781 230.929688 14.972656 230.765625 15.066406 C 230.609375 15.152344 230.46875 15.277344 230.34375 15.441406 C 230.226562 15.597656 230.140625 15.792969 230.078125 16.019531 C 230.015625 16.25 229.984375 16.496094 229.984375 16.753906 L 229.984375 20.160156 L 228.34375 20.160156 L 228.34375 15.238281 C 228.34375 15.105469 228.335938 14.964844 228.328125 14.816406 C 228.328125 14.671875 228.320312 14.535156 228.3125 14.410156 C 228.3125 14.277344 228.304688 14.15625 228.296875 14.050781 C 228.296875 13.949219 228.296875 13.871094 228.296875 13.816406 L 229.859375 13.816406 C 229.867188 13.871094 229.875 13.949219 229.875 14.050781 C 229.882812 14.15625 229.894531 14.269531 229.90625 14.394531 C 229.914062 14.519531 229.921875 14.644531 229.921875 14.769531 C 229.929688 14.894531 229.9375 15 229.9375 15.082031 L 229.96875 15.082031 C 230.1875 14.59375 230.460938 14.238281 230.796875 14.019531 C 231.128906 13.800781 231.53125 13.691406 232 13.691406 C 232.382812 13.691406 232.707031 13.753906 232.96875 13.878906 C 233.226562 14.003906 233.441406 14.175781 233.609375 14.394531 C 233.773438 14.613281 233.894531 14.875 233.96875 15.175781 C 234.050781 15.46875 234.09375 15.785156 234.09375 16.128906 L 234.09375 20.160156 Z M 235.34375 12.675781 L 235.34375 11.457031 L 236.984375 11.457031 L 236.984375 12.675781 Z M 235.34375 20.160156 L 235.34375 13.816406 L 236.984375 13.816406 L 236.984375 20.160156 Z M 242.453125 20.160156 L 242.453125 16.597656 C 242.453125 16.359375 242.429688 16.136719 242.390625 15.925781 C 242.347656 15.71875 242.28125 15.542969 242.1875 15.394531 C 242.101562 15.25 241.988281 15.136719 241.84375 15.050781 C 241.695312 14.96875 241.519531 14.925781 241.3125 14.925781 C 241.113281 14.925781 240.929688 14.972656 240.765625 15.066406 C 240.609375 15.152344 240.46875 15.277344 240.34375 15.441406 C 240.226562 15.597656 240.140625 15.792969 240.078125 16.019531 C 240.015625 16.25 239.984375 16.496094 239.984375 16.753906 L 239.984375 20.160156 L 238.34375 20.160156 L 238.34375 15.238281 C 238.34375 15.105469 238.335938 14.964844 238.328125 14.816406 C 238.328125 14.671875 238.320312 14.535156 238.3125 14.410156 C 238.3125 14.277344 238.304688 14.15625 238.296875 14.050781 C 238.296875 13.949219 238.296875 13.871094 238.296875 13.816406 L 239.859375 13.816406 C 239.867188 13.871094 239.875 13.949219 239.875 14.050781 C 239.882812 14.15625 239.894531 14.269531 239.90625 14.394531 C 239.914062 14.519531 239.921875 14.644531 239.921875 14.769531 C 239.929688 14.894531 239.9375 15 239.9375 15.082031 L 239.96875 15.082031 C 240.1875 14.59375 240.460938 14.238281 240.796875 14.019531 C 241.128906 13.800781 241.53125 13.691406 242 13.691406 C 242.382812 13.691406 242.707031 13.753906 242.96875 13.878906 C 243.226562 14.003906 243.441406 14.175781 243.609375 14.394531 C 243.773438 14.613281 243.894531 14.875 243.96875 15.175781 C 244.050781 15.46875 244.09375 15.785156 244.09375 16.128906 L 244.09375 20.160156 Z M 248 22.707031 C 247.570312 22.707031 247.195312 22.664062 246.875 22.582031 C 246.5625 22.496094 246.289062 22.378906 246.0625 22.222656 C 245.84375 22.074219 245.664062 21.898438 245.53125 21.691406 C 245.394531 21.480469 245.300781 21.253906 245.25 21.003906 L 246.90625 20.800781 C 246.957031 21.058594 247.082031 21.257812 247.28125 21.394531 C 247.476562 21.539062 247.734375 21.613281 248.046875 21.613281 C 248.234375 21.613281 248.40625 21.585938 248.5625 21.535156 C 248.726562 21.480469 248.867188 21.386719 248.984375 21.253906 C 249.109375 21.128906 249.203125 20.957031 249.265625 20.738281 C 249.328125 20.527344 249.359375 20.261719 249.359375 19.941406 C 249.359375 19.839844 249.359375 19.730469 249.359375 19.613281 C 249.359375 19.5 249.359375 19.394531 249.359375 19.300781 C 249.367188 19.1875 249.375 19.082031 249.375 18.988281 L 249.359375 18.988281 C 249.171875 19.394531 248.898438 19.691406 248.546875 19.878906 C 248.203125 20.058594 247.789062 20.144531 247.3125 20.144531 C 246.914062 20.144531 246.570312 20.066406 246.28125 19.910156 C 245.988281 19.753906 245.742188 19.535156 245.546875 19.253906 C 245.359375 18.964844 245.21875 18.625 245.125 18.238281 C 245.039062 17.84375 245 17.410156 245 16.941406 C 245 16.453125 245.046875 16.011719 245.140625 15.613281 C 245.234375 15.21875 245.378906 14.878906 245.578125 14.597656 C 245.785156 14.308594 246.039062 14.082031 246.34375 13.925781 C 246.65625 13.769531 247.019531 13.691406 247.4375 13.691406 C 247.863281 13.691406 248.242188 13.785156 248.578125 13.972656 C 248.910156 14.152344 249.171875 14.4375 249.359375 14.832031 L 249.390625 14.832031 C 249.390625 14.761719 249.390625 14.671875 249.390625 14.566406 C 249.398438 14.453125 249.40625 14.347656 249.40625 14.253906 C 249.414062 14.152344 249.425781 14.0625 249.4375 13.988281 C 249.445312 13.90625 249.457031 13.847656 249.46875 13.816406 L 251.03125 13.816406 C 251.019531 13.964844 251.007812 14.160156 251 14.410156 C 251 14.660156 251 14.953125 251 15.285156 L 251 19.972656 C 251 20.429688 250.929688 20.832031 250.796875 21.175781 C 250.660156 21.519531 250.460938 21.800781 250.203125 22.019531 C 249.953125 22.246094 249.640625 22.417969 249.265625 22.535156 C 248.890625 22.648438 248.46875 22.707031 248 22.707031 Z M 249.375 16.894531 C 249.375 16.5 249.332031 16.171875 249.25 15.910156 C 249.175781 15.640625 249.078125 15.425781 248.953125 15.269531 C 248.828125 15.105469 248.679688 14.988281 248.515625 14.925781 C 248.359375 14.863281 248.195312 14.832031 248.03125 14.832031 C 247.820312 14.832031 247.632812 14.875 247.46875 14.957031 C 247.300781 15.03125 247.160156 15.15625 247.046875 15.332031 C 246.941406 15.5 246.859375 15.71875 246.796875 15.988281 C 246.734375 16.25 246.703125 16.566406 246.703125 16.941406 C 246.703125 17.621094 246.8125 18.136719 247.03125 18.488281 C 247.25 18.832031 247.578125 19.003906 248.015625 19.003906 C 248.179688 19.003906 248.34375 18.972656 248.5 18.910156 C 248.664062 18.847656 248.8125 18.738281 248.9375 18.582031 C 249.070312 18.417969 249.175781 18.199219 249.25 17.925781 C 249.332031 17.65625 249.375 17.3125 249.375 16.894531 Z M 256.796875 20.285156 C 256.492188 20.285156 256.222656 20.242188 255.984375 20.160156 C 255.742188 20.066406 255.539062 19.941406 255.375 19.785156 C 255.207031 19.621094 255.078125 19.417969 254.984375 19.175781 C 254.898438 18.9375 254.859375 18.667969 254.859375 18.363281 C 254.859375 17.988281 254.921875 17.675781 255.046875 17.425781 C 255.179688 17.167969 255.359375 16.957031 255.578125 16.800781 C 255.804688 16.644531 256.070312 16.53125 256.375 16.457031 C 256.6875 16.386719 257.015625 16.34375 257.359375 16.332031 L 258.71875 16.316406 L 258.71875 15.988281 C 258.71875 15.761719 258.695312 15.574219 258.65625 15.425781 C 258.613281 15.269531 258.550781 15.144531 258.46875 15.050781 C 258.394531 14.949219 258.300781 14.875 258.1875 14.832031 C 258.070312 14.792969 257.941406 14.769531 257.796875 14.769531 C 257.660156 14.769531 257.535156 14.785156 257.421875 14.816406 C 257.316406 14.839844 257.222656 14.886719 257.140625 14.957031 C 257.066406 15.019531 257.003906 15.109375 256.953125 15.222656 C 256.910156 15.339844 256.878906 15.484375 256.859375 15.660156 L 255.140625 15.582031 C 255.179688 15.300781 255.265625 15.050781 255.390625 14.832031 C 255.515625 14.605469 255.6875 14.40625 255.90625 14.238281 C 256.132812 14.0625 256.410156 13.933594 256.734375 13.847656 C 257.054688 13.753906 257.429688 13.707031 257.859375 13.707031 C 258.253906 13.707031 258.601562 13.753906 258.90625 13.847656 C 259.21875 13.941406 259.484375 14.089844 259.703125 14.285156 C 259.921875 14.484375 260.082031 14.722656 260.1875 15.003906 C 260.300781 15.285156 260.359375 15.609375 260.359375 15.972656 L 260.359375 18.285156 C 260.359375 18.433594 260.363281 18.566406 260.375 18.691406 C 260.394531 18.808594 260.421875 18.90625 260.453125 18.988281 C 260.492188 19.0625 260.546875 19.121094 260.609375 19.160156 C 260.679688 19.203125 260.773438 19.222656 260.890625 19.222656 C 261.015625 19.222656 261.132812 19.214844 261.25 19.191406 L 261.25 20.082031 C 261.15625 20.105469 261.066406 20.125 260.984375 20.144531 C 260.910156 20.164062 260.832031 20.179688 260.75 20.191406 C 260.675781 20.199219 260.59375 20.210938 260.5 20.222656 C 260.414062 20.230469 260.316406 20.238281 260.203125 20.238281 C 259.785156 20.238281 259.476562 20.136719 259.28125 19.925781 C 259.082031 19.71875 258.960938 19.421875 258.921875 19.035156 L 258.890625 19.035156 C 258.671875 19.421875 258.390625 19.730469 258.046875 19.957031 C 257.703125 20.175781 257.285156 20.285156 256.796875 20.285156 Z M 258.71875 17.222656 L 257.875 17.238281 C 257.695312 17.25 257.53125 17.265625 257.375 17.285156 C 257.21875 17.308594 257.078125 17.355469 256.953125 17.425781 C 256.835938 17.488281 256.742188 17.589844 256.671875 17.722656 C 256.597656 17.847656 256.5625 18.019531 256.5625 18.238281 C 256.5625 18.542969 256.628906 18.765625 256.765625 18.910156 C 256.910156 19.058594 257.097656 19.128906 257.328125 19.128906 C 257.535156 19.128906 257.722656 19.089844 257.890625 19.003906 C 258.066406 18.910156 258.210938 18.792969 258.328125 18.644531 C 258.453125 18.5 258.546875 18.332031 258.609375 18.144531 C 258.679688 17.949219 258.71875 17.75 258.71875 17.550781 Z M 264.265625 14.925781 L 264.265625 20.160156 L 262.625 20.160156 L 262.625 14.925781 L 261.703125 14.925781 L 261.703125 13.816406 L 262.625 13.816406 L 262.625 13.160156 C 262.625 12.921875 262.65625 12.699219 262.71875 12.488281 C 262.78125 12.28125 262.878906 12.105469 263.015625 11.957031 C 263.160156 11.800781 263.347656 11.683594 263.578125 11.597656 C 263.816406 11.503906 264.117188 11.457031 264.484375 11.457031 C 264.671875 11.457031 264.851562 11.46875 265.03125 11.488281 C 265.207031 11.511719 265.367188 11.53125 265.515625 11.550781 L 265.515625 12.613281 C 265.453125 12.605469 265.375 12.59375 265.28125 12.582031 C 265.195312 12.574219 265.117188 12.566406 265.046875 12.566406 C 264.890625 12.566406 264.757812 12.582031 264.65625 12.613281 C 264.5625 12.644531 264.484375 12.691406 264.421875 12.753906 C 264.367188 12.816406 264.328125 12.894531 264.296875 12.988281 C 264.273438 13.082031 264.265625 13.191406 264.265625 13.316406 L 264.265625 13.816406 L 265.515625 13.816406 L 265.515625 14.925781 Z M 267.96875 20.269531 C 267.476562 20.269531 267.101562 20.140625 266.84375 19.878906 C 266.582031 19.609375 266.453125 19.207031 266.453125 18.675781 L 266.453125 14.925781 L 265.640625 14.925781 L 265.640625 13.816406 L 266.53125 13.816406 L 267.046875 12.332031 L 268.078125 12.332031 L 268.078125 13.816406 L 269.28125 13.816406 L 269.28125 14.925781 L 268.078125 14.925781 L 268.078125 18.222656 C 268.078125 18.535156 268.132812 18.765625 268.25 18.910156 C 268.375 19.058594 268.554688 19.128906 268.796875 19.128906 C 268.898438 19.128906 268.992188 19.125 269.078125 19.113281 C 269.160156 19.09375 269.25 19.074219 269.34375 19.050781 L 269.34375 20.066406 C 269.144531 20.128906 268.929688 20.175781 268.703125 20.207031 C 268.472656 20.246094 268.226562 20.269531 267.96875 20.269531 Z M 272.9375 20.285156 C 272.476562 20.285156 272.066406 20.214844 271.703125 20.082031 C 271.335938 19.949219 271.023438 19.746094 270.765625 19.472656 C 270.503906 19.191406 270.304688 18.84375 270.171875 18.425781 C 270.035156 18.011719 269.96875 17.519531 269.96875 16.957031 C 269.96875 16.355469 270.046875 15.847656 270.203125 15.441406 C 270.367188 15.027344 270.585938 14.6875 270.859375 14.425781 C 271.140625 14.167969 271.457031 13.984375 271.8125 13.878906 C 272.175781 13.765625 272.554688 13.707031 272.953125 13.707031 C 273.453125 13.707031 273.878906 13.796875 274.234375 13.972656 C 274.585938 14.140625 274.878906 14.378906 275.109375 14.691406 C 275.335938 15.003906 275.503906 15.378906 275.609375 15.816406 C 275.710938 16.253906 275.765625 16.734375 275.765625 17.253906 L 275.765625 17.300781 L 271.703125 17.300781 C 271.703125 17.574219 271.722656 17.824219 271.765625 18.050781 C 271.816406 18.28125 271.894531 18.480469 272 18.644531 C 272.101562 18.8125 272.238281 18.941406 272.40625 19.035156 C 272.570312 19.128906 272.773438 19.175781 273.015625 19.175781 C 273.304688 19.175781 273.539062 19.113281 273.71875 18.988281 C 273.90625 18.863281 274.039062 18.675781 274.125 18.425781 L 275.671875 18.550781 C 275.597656 18.730469 275.5 18.921875 275.375 19.128906 C 275.25 19.328125 275.078125 19.515625 274.859375 19.691406 C 274.648438 19.859375 274.390625 20 274.078125 20.113281 C 273.765625 20.226562 273.382812 20.285156 272.9375 20.285156 Z M 272.9375 14.738281 C 272.769531 14.738281 272.613281 14.769531 272.46875 14.832031 C 272.320312 14.886719 272.191406 14.972656 272.078125 15.097656 C 271.972656 15.222656 271.882812 15.386719 271.8125 15.582031 C 271.75 15.769531 271.710938 16 271.703125 16.269531 L 274.171875 16.269531 C 274.140625 15.761719 274.015625 15.378906 273.796875 15.128906 C 273.585938 14.871094 273.300781 14.738281 272.9375 14.738281 Z M 277.34375 20.160156 L 277.34375 15.300781 C 277.34375 15.167969 277.335938 15.027344 277.328125 14.878906 C 277.328125 14.722656 277.320312 14.578125 277.3125 14.441406 C 277.3125 14.296875 277.304688 14.171875 277.296875 14.066406 C 277.296875 13.953125 277.296875 13.871094 277.296875 13.816406 L 278.859375 13.816406 C 278.867188 13.871094 278.875 13.953125 278.875 14.066406 C 278.882812 14.183594 278.894531 14.308594 278.90625 14.441406 C 278.914062 14.578125 278.921875 14.714844 278.921875 14.847656 C 278.929688 14.984375 278.9375 15.09375 278.9375 15.175781 L 278.96875 15.175781 C 279.039062 14.949219 279.117188 14.746094 279.203125 14.566406 C 279.285156 14.378906 279.382812 14.222656 279.5 14.097656 C 279.613281 13.964844 279.75 13.863281 279.90625 13.800781 C 280.0625 13.730469 280.253906 13.691406 280.484375 13.691406 C 280.578125 13.691406 280.671875 13.703125 280.765625 13.722656 C 280.859375 13.746094 280.929688 13.765625 280.984375 13.785156 L 280.984375 15.160156 C 280.878906 15.140625 280.773438 15.121094 280.671875 15.097656 C 280.566406 15.078125 280.4375 15.066406 280.28125 15.066406 C 279.875 15.066406 279.554688 15.234375 279.328125 15.566406 C 279.097656 15.902344 278.984375 16.394531 278.984375 17.050781 L 278.984375 20.160156 Z M 286.96875 20.269531 C 286.476562 20.269531 286.101562 20.140625 285.84375 19.878906 C 285.582031 19.609375 285.453125 19.207031 285.453125 18.675781 L 285.453125 14.925781 L 284.640625 14.925781 L 284.640625 13.816406 L 285.53125 13.816406 L 286.046875 12.332031 L 287.078125 12.332031 L 287.078125 13.816406 L 288.28125 13.816406 L 288.28125 14.925781 L 287.078125 14.925781 L 287.078125 18.222656 C 287.078125 18.535156 287.132812 18.765625 287.25 18.910156 C 287.375 19.058594 287.554688 19.128906 287.796875 19.128906 C 287.898438 19.128906 287.992188 19.125 288.078125 19.113281 C 288.160156 19.09375 288.25 19.074219 288.34375 19.050781 L 288.34375 20.066406 C 288.144531 20.128906 287.929688 20.175781 287.703125 20.207031 C 287.472656 20.246094 287.226562 20.269531 286.96875 20.269531 Z M 295.359375 16.988281 C 295.359375 17.46875 295.289062 17.910156 295.15625 18.316406 C 295.019531 18.714844 294.816406 19.058594 294.546875 19.347656 C 294.285156 19.640625 293.953125 19.871094 293.546875 20.035156 C 293.140625 20.199219 292.671875 20.285156 292.140625 20.285156 C 291.617188 20.285156 291.160156 20.207031 290.765625 20.050781 C 290.378906 19.886719 290.050781 19.65625 289.78125 19.363281 C 289.507812 19.074219 289.304688 18.730469 289.171875 18.332031 C 289.035156 17.925781 288.96875 17.480469 288.96875 16.988281 C 288.96875 16.511719 289.03125 16.074219 289.15625 15.675781 C 289.289062 15.269531 289.488281 14.921875 289.75 14.628906 C 290.019531 14.339844 290.351562 14.113281 290.75 13.957031 C 291.15625 13.792969 291.628906 13.707031 292.171875 13.707031 C 292.742188 13.707031 293.226562 13.792969 293.625 13.957031 C 294.03125 14.113281 294.359375 14.339844 294.609375 14.628906 C 294.867188 14.921875 295.054688 15.269531 295.171875 15.675781 C 295.296875 16.074219 295.359375 16.511719 295.359375 16.988281 Z M 293.640625 16.988281 C 293.640625 16.230469 293.515625 15.683594 293.265625 15.347656 C 293.023438 15.003906 292.671875 14.832031 292.203125 14.832031 C 291.710938 14.832031 291.335938 15.003906 291.078125 15.347656 C 290.828125 15.691406 290.703125 16.238281 290.703125 16.988281 C 290.703125 17.363281 290.734375 17.691406 290.796875 17.972656 C 290.867188 18.246094 290.96875 18.46875 291.09375 18.644531 C 291.21875 18.8125 291.367188 18.9375 291.546875 19.019531 C 291.722656 19.105469 291.914062 19.144531 292.125 19.144531 C 292.363281 19.144531 292.578125 19.105469 292.765625 19.019531 C 292.953125 18.9375 293.109375 18.8125 293.234375 18.644531 C 293.367188 18.46875 293.46875 18.246094 293.53125 17.972656 C 293.601562 17.691406 293.640625 17.363281 293.640625 16.988281 Z M 300.453125 20.160156 C 300.441406 20.128906 300.429688 20.078125 300.421875 20.003906 C 300.410156 19.921875 300.398438 19.828125 300.390625 19.722656 C 300.378906 19.621094 300.367188 19.515625 300.359375 19.410156 C 300.359375 19.308594 300.359375 19.214844 300.359375 19.128906 L 300.328125 19.128906 C 300.140625 19.535156 299.875 19.832031 299.53125 20.019531 C 299.1875 20.195312 298.78125 20.285156 298.3125 20.285156 C 297.90625 20.285156 297.554688 20.199219 297.265625 20.035156 C 296.984375 19.871094 296.742188 19.640625 296.546875 19.347656 C 296.359375 19.058594 296.21875 18.714844 296.125 18.316406 C 296.039062 17.910156 296 17.46875 296 16.988281 C 296 16.511719 296.046875 16.074219 296.140625 15.675781 C 296.234375 15.269531 296.378906 14.921875 296.578125 14.628906 C 296.773438 14.339844 297.023438 14.113281 297.328125 13.957031 C 297.640625 13.792969 298.007812 13.707031 298.4375 13.707031 C 298.632812 13.707031 298.828125 13.730469 299.015625 13.769531 C 299.210938 13.8125 299.394531 13.878906 299.5625 13.972656 C 299.726562 14.058594 299.875 14.171875 300 14.316406 C 300.132812 14.453125 300.25 14.621094 300.34375 14.816406 L 300.359375 14.816406 C 300.359375 14.785156 300.359375 14.734375 300.359375 14.660156 C 300.359375 14.578125 300.359375 14.488281 300.359375 14.394531 C 300.359375 14.292969 300.351562 14.1875 300.34375 14.082031 C 300.34375 13.980469 300.34375 13.878906 300.34375 13.785156 L 300.34375 11.457031 L 302 11.457031 L 302 18.769531 C 302 19.082031 302.003906 19.359375 302.015625 19.597656 C 302.023438 19.839844 302.035156 20.027344 302.046875 20.160156 Z M 300.375 16.957031 C 300.375 16.542969 300.332031 16.199219 300.25 15.925781 C 300.175781 15.644531 300.070312 15.425781 299.9375 15.269531 C 299.8125 15.105469 299.664062 14.988281 299.5 14.925781 C 299.34375 14.855469 299.179688 14.816406 299.015625 14.816406 C 298.804688 14.816406 298.617188 14.859375 298.453125 14.941406 C 298.296875 15.027344 298.160156 15.15625 298.046875 15.332031 C 297.929688 15.511719 297.84375 15.734375 297.78125 16.003906 C 297.726562 16.277344 297.703125 16.605469 297.703125 16.988281 C 297.703125 18.425781 298.132812 19.144531 299 19.144531 C 299.164062 19.144531 299.332031 19.113281 299.5 19.050781 C 299.664062 18.980469 299.8125 18.859375 299.9375 18.691406 C 300.0625 18.527344 300.164062 18.300781 300.25 18.019531 C 300.332031 17.730469 300.375 17.375 300.375 16.957031 Z M 307.453125 20.160156 C 307.441406 20.128906 307.429688 20.078125 307.421875 20.003906 C 307.410156 19.921875 307.398438 19.828125 307.390625 19.722656 C 307.378906 19.621094 307.367188 19.515625 307.359375 19.410156 C 307.359375 19.308594 307.359375 19.214844 307.359375 19.128906 L 307.328125 19.128906 C 307.140625 19.535156 306.875 19.832031 306.53125 20.019531 C 306.1875 20.195312 305.78125 20.285156 305.3125 20.285156 C 304.90625 20.285156 304.554688 20.199219 304.265625 20.035156 C 303.984375 19.871094 303.742188 19.640625 303.546875 19.347656 C 303.359375 19.058594 303.21875 18.714844 303.125 18.316406 C 303.039062 17.910156 303 17.46875 303 16.988281 C 303 16.511719 303.046875 16.074219 303.140625 15.675781 C 303.234375 15.269531 303.378906 14.921875 303.578125 14.628906 C 303.773438 14.339844 304.023438 14.113281 304.328125 13.957031 C 304.640625 13.792969 305.007812 13.707031 305.4375 13.707031 C 305.632812 13.707031 305.828125 13.730469 306.015625 13.769531 C 306.210938 13.8125 306.394531 13.878906 306.5625 13.972656 C 306.726562 14.058594 306.875 14.171875 307 14.316406 C 307.132812 14.453125 307.25 14.621094 307.34375 14.816406 L 307.359375 14.816406 C 307.359375 14.785156 307.359375 14.734375 307.359375 14.660156 C 307.359375 14.578125 307.359375 14.488281 307.359375 14.394531 C 307.359375 14.292969 307.351562 14.1875 307.34375 14.082031 C 307.34375 13.980469 307.34375 13.878906 307.34375 13.785156 L 307.34375 11.457031 L 309 11.457031 L 309 18.769531 C 309 19.082031 309.003906 19.359375 309.015625 19.597656 C 309.023438 19.839844 309.035156 20.027344 309.046875 20.160156 Z M 307.375 16.957031 C 307.375 16.542969 307.332031 16.199219 307.25 15.925781 C 307.175781 15.644531 307.070312 15.425781 306.9375 15.269531 C 306.8125 15.105469 306.664062 14.988281 306.5 14.925781 C 306.34375 14.855469 306.179688 14.816406 306.015625 14.816406 C 305.804688 14.816406 305.617188 14.859375 305.453125 14.941406 C 305.296875 15.027344 305.160156 15.15625 305.046875 15.332031 C 304.929688 15.511719 304.84375 15.734375 304.78125 16.003906 C 304.726562 16.277344 304.703125 16.605469 304.703125 16.988281 C 304.703125 18.425781 305.132812 19.144531 306 19.144531 C 306.164062 19.144531 306.332031 19.113281 306.5 19.050781 C 306.664062 18.980469 306.8125 18.859375 306.9375 18.691406 C 307.0625 18.527344 307.164062 18.300781 307.25 18.019531 C 307.332031 17.730469 307.375 17.375 307.375 16.957031 Z M 310.34375 20.160156 L 310.34375 11.457031 L 311.984375 11.457031 L 311.984375 20.160156 Z M 315.9375 20.285156 C 315.476562 20.285156 315.066406 20.214844 314.703125 20.082031 C 314.335938 19.949219 314.023438 19.746094 313.765625 19.472656 C 313.503906 19.191406 313.304688 18.84375 313.171875 18.425781 C 313.035156 18.011719 312.96875 17.519531 312.96875 16.957031 C 312.96875 16.355469 313.046875 15.847656 313.203125 15.441406 C 313.367188 15.027344 313.585938 14.6875 313.859375 14.425781 C 314.140625 14.167969 314.457031 13.984375 314.8125 13.878906 C 315.175781 13.765625 315.554688 13.707031 315.953125 13.707031 C 316.453125 13.707031 316.878906 13.796875 317.234375 13.972656 C 317.585938 14.140625 317.878906 14.378906 318.109375 14.691406 C 318.335938 15.003906 318.503906 15.378906 318.609375 15.816406 C 318.710938 16.253906 318.765625 16.734375 318.765625 17.253906 L 318.765625 17.300781 L 314.703125 17.300781 C 314.703125 17.574219 314.722656 17.824219 314.765625 18.050781 C 314.816406 18.28125 314.894531 18.480469 315 18.644531 C 315.101562 18.8125 315.238281 18.941406 315.40625 19.035156 C 315.570312 19.128906 315.773438 19.175781 316.015625 19.175781 C 316.304688 19.175781 316.539062 19.113281 316.71875 18.988281 C 316.90625 18.863281 317.039062 18.675781 317.125 18.425781 L 318.671875 18.550781 C 318.597656 18.730469 318.5 18.921875 318.375 19.128906 C 318.25 19.328125 318.078125 19.515625 317.859375 19.691406 C 317.648438 19.859375 317.390625 20 317.078125 20.113281 C 316.765625 20.226562 316.382812 20.285156 315.9375 20.285156 Z M 315.9375 14.738281 C 315.769531 14.738281 315.613281 14.769531 315.46875 14.832031 C 315.320312 14.886719 315.191406 14.972656 315.078125 15.097656 C 314.972656 15.222656 314.882812 15.386719 314.8125 15.582031 C 314.75 15.769531 314.710938 16 314.703125 16.269531 L 317.171875 16.269531 C 317.140625 15.761719 317.015625 15.378906 316.796875 15.128906 C 316.585938 14.871094 316.300781 14.738281 315.9375 14.738281 Z M 320.34375 20.160156 L 320.34375 15.300781 C 320.34375 15.167969 320.335938 15.027344 320.328125 14.878906 C 320.328125 14.722656 320.320312 14.578125 320.3125 14.441406 C 320.3125 14.296875 320.304688 14.171875 320.296875 14.066406 C 320.296875 13.953125 320.296875 13.871094 320.296875 13.816406 L 321.859375 13.816406 C 321.867188 13.871094 321.875 13.953125 321.875 14.066406 C 321.882812 14.183594 321.894531 14.308594 321.90625 14.441406 C 321.914062 14.578125 321.921875 14.714844 321.921875 14.847656 C 321.929688 14.984375 321.9375 15.09375 321.9375 15.175781 L 321.96875 15.175781 C 322.039062 14.949219 322.117188 14.746094 322.203125 14.566406 C 322.285156 14.378906 322.382812 14.222656 322.5 14.097656 C 322.613281 13.964844 322.75 13.863281 322.90625 13.800781 C 323.0625 13.730469 323.253906 13.691406 323.484375 13.691406 C 323.578125 13.691406 323.671875 13.703125 323.765625 13.722656 C 323.859375 13.746094 323.929688 13.765625 323.984375 13.785156 L 323.984375 15.160156 C 323.878906 15.140625 323.773438 15.121094 323.671875 15.097656 C 323.566406 15.078125 323.4375 15.066406 323.28125 15.066406 C 322.875 15.066406 322.554688 15.234375 322.328125 15.566406 C 322.097656 15.902344 321.984375 16.394531 321.984375 17.050781 L 321.984375 20.160156 Z M 204.5 9.296875 "/>
<path style="fill-rule:nonzero;fill:rgb(39.215686%,90.980392%,23.529412%);fill-opacity:1;stroke-width:2;stroke-linecap:butt;stroke-linejoin:miter;stroke:rgb(100%,100%,100%);stroke-opacity:1;stroke-miterlimit:10;" d="M 122.5 32 L 162.5 32 L 162.5 44 L 122.5 44 Z M 122.5 32 "/>
<path style=" stroke:none;fill-rule:nonzero;fill:rgb(40%,40%,40%);fill-opacity:1;" d="M 173.15625 40.910156 C 173.476562 40.910156 173.757812 40.871094 174 40.785156 C 174.238281 40.691406 174.441406 40.574219 174.609375 40.425781 C 174.785156 40.269531 174.929688 40.097656 175.046875 39.910156 C 175.160156 39.722656 175.253906 39.535156 175.328125 39.347656 L 176.84375 39.910156 C 176.71875 40.214844 176.554688 40.511719 176.359375 40.800781 C 176.171875 41.082031 175.925781 41.332031 175.625 41.550781 C 175.332031 41.769531 174.984375 41.949219 174.578125 42.082031 C 174.179688 42.214844 173.707031 42.285156 173.15625 42.285156 C 172.445312 42.285156 171.828125 42.179688 171.296875 41.972656 C 170.773438 41.753906 170.34375 41.453125 170 41.066406 C 169.65625 40.683594 169.398438 40.230469 169.234375 39.707031 C 169.078125 39.1875 169 38.613281 169 37.988281 C 169 37.34375 169.078125 36.765625 169.234375 36.253906 C 169.398438 35.734375 169.648438 35.292969 169.984375 34.925781 C 170.328125 34.5625 170.753906 34.28125 171.265625 34.082031 C 171.785156 33.886719 172.390625 33.785156 173.078125 33.785156 C 173.617188 33.785156 174.09375 33.84375 174.5 33.957031 C 174.90625 34.0625 175.253906 34.21875 175.546875 34.425781 C 175.835938 34.636719 176.078125 34.878906 176.265625 35.160156 C 176.460938 35.433594 176.617188 35.738281 176.734375 36.082031 L 175.203125 36.488281 C 175.148438 36.3125 175.066406 36.144531 174.953125 35.988281 C 174.835938 35.824219 174.691406 35.675781 174.515625 35.550781 C 174.347656 35.425781 174.144531 35.328125 173.90625 35.253906 C 173.675781 35.183594 173.414062 35.144531 173.125 35.144531 C 172.695312 35.144531 172.332031 35.214844 172.03125 35.347656 C 171.738281 35.484375 171.492188 35.675781 171.296875 35.925781 C 171.109375 36.175781 170.96875 36.480469 170.875 36.832031 C 170.78125 37.175781 170.734375 37.5625 170.734375 37.988281 C 170.734375 38.425781 170.78125 38.824219 170.875 39.175781 C 170.96875 39.53125 171.109375 39.839844 171.296875 40.097656 C 171.492188 40.359375 171.742188 40.5625 172.046875 40.707031 C 172.359375 40.84375 172.726562 40.910156 173.15625 40.910156 Z M 184.359375 38.988281 C 184.359375 39.46875 184.289062 39.910156 184.15625 40.316406 C 184.019531 40.714844 183.816406 41.058594 183.546875 41.347656 C 183.285156 41.640625 182.953125 41.871094 182.546875 42.035156 C 182.140625 42.199219 181.671875 42.285156 181.140625 42.285156 C 180.617188 42.285156 180.160156 42.207031 179.765625 42.050781 C 179.378906 41.886719 179.050781 41.65625 178.78125 41.363281 C 178.507812 41.074219 178.304688 40.730469 178.171875 40.332031 C 178.035156 39.925781 177.96875 39.480469 177.96875 38.988281 C 177.96875 38.511719 178.03125 38.074219 178.15625 37.675781 C 178.289062 37.269531 178.488281 36.921875 178.75 36.628906 C 179.019531 36.339844 179.351562 36.113281 179.75 35.957031 C 180.15625 35.792969 180.628906 35.707031 181.171875 35.707031 C 181.742188 35.707031 182.226562 35.792969 182.625 35.957031 C 183.03125 36.113281 183.359375 36.339844 183.609375 36.628906 C 183.867188 36.921875 184.054688 37.269531 184.171875 37.675781 C 184.296875 38.074219 184.359375 38.511719 184.359375 38.988281 Z M 182.640625 38.988281 C 182.640625 38.230469 182.515625 37.683594 182.265625 37.347656 C 182.023438 37.003906 181.671875 36.832031 181.203125 36.832031 C 180.710938 36.832031 180.335938 37.003906 180.078125 37.347656 C 179.828125 37.691406 179.703125 38.238281 179.703125 38.988281 C 179.703125 39.363281 179.734375 39.691406 179.796875 39.972656 C 179.867188 40.246094 179.96875 40.46875 180.09375 40.644531 C 180.21875 40.8125 180.367188 40.9375 180.546875 41.019531 C 180.722656 41.105469 180.914062 41.144531 181.125 41.144531 C 181.363281 41.144531 181.578125 41.105469 181.765625 41.019531 C 181.953125 40.9375 182.109375 40.8125 182.234375 40.644531 C 182.367188 40.46875 182.46875 40.246094 182.53125 39.972656 C 182.601562 39.691406 182.640625 39.363281 182.640625 38.988281 Z M 191.359375 38.988281 C 191.359375 39.46875 191.289062 39.910156 191.15625 40.316406 C 191.019531 40.714844 190.816406 41.058594 190.546875 41.347656 C 190.285156 41.640625 189.953125 41.871094 189.546875 42.035156 C 189.140625 42.199219 188.671875 42.285156 188.140625 42.285156 C 187.617188 42.285156 187.160156 42.207031 186.765625 42.050781 C 186.378906 41.886719 186.050781 41.65625 185.78125 41.363281 C 185.507812 41.074219 185.304688 40.730469 185.171875 40.332031 C 185.035156 39.925781 184.96875 39.480469 184.96875 38.988281 C 184.96875 38.511719 185.03125 38.074219 185.15625 37.675781 C 185.289062 37.269531 185.488281 36.921875 185.75 36.628906 C 186.019531 36.339844 186.351562 36.113281 186.75 35.957031 C 187.15625 35.792969 187.628906 35.707031 188.171875 35.707031 C 188.742188 35.707031 189.226562 35.792969 189.625 35.957031 C 190.03125 36.113281 190.359375 36.339844 190.609375 36.628906 C 190.867188 36.921875 191.054688 37.269531 191.171875 37.675781 C 191.296875 38.074219 191.359375 38.511719 191.359375 38.988281 Z M 189.640625 38.988281 C 189.640625 38.230469 189.515625 37.683594 189.265625 37.347656 C 189.023438 37.003906 188.671875 36.832031 188.203125 36.832031 C 187.710938 36.832031 187.335938 37.003906 187.078125 37.347656 C 186.828125 37.691406 186.703125 38.238281 186.703125 38.988281 C 186.703125 39.363281 186.734375 39.691406 186.796875 39.972656 C 186.867188 40.246094 186.96875 40.46875 187.09375 40.644531 C 187.21875 40.8125 187.367188 40.9375 187.546875 41.019531 C 187.722656 41.105469 187.914062 41.144531 188.125 41.144531 C 188.363281 41.144531 188.578125 41.105469 188.765625 41.019531 C 188.953125 40.9375 189.109375 40.8125 189.234375 40.644531 C 189.367188 40.46875 189.46875 40.246094 189.53125 39.972656 C 189.601562 39.691406 189.640625 39.363281 189.640625 38.988281 Z M 196.390625 42.160156 L 194.6875 39.285156 L 193.984375 39.785156 L 193.984375 42.160156 L 192.34375 42.160156 L 192.34375 33.457031 L 193.984375 33.457031 L 193.984375 38.441406 L 196.25 35.816406 L 198.015625 35.816406 L 195.796875 38.285156 L 198.1875 42.160156 Z M 199.34375 34.675781 L 199.34375 33.457031 L 200.984375 33.457031 L 200.984375 34.675781 Z M 199.34375 42.160156 L 199.34375 35.816406 L 200.984375 35.816406 L 200.984375 42.160156 Z M 206.453125 42.160156 L 206.453125 38.597656 C 206.453125 38.359375 206.429688 38.136719 206.390625 37.925781 C 206.347656 37.71875 206.28125 37.542969 206.1875 37.394531 C 206.101562 37.25 205.988281 37.136719 205.84375 37.050781 C 205.695312 36.96875 205.519531 36.925781 205.3125 36.925781 C 205.113281 36.925781 204.929688 36.972656 204.765625 37.066406 C 204.609375 37.152344 204.46875 37.277344 204.34375 37.441406 C 204.226562 37.597656 204.140625 37.792969 204.078125 38.019531 C 204.015625 38.25 203.984375 38.496094 203.984375 38.753906 L 203.984375 42.160156 L 202.34375 42.160156 L 202.34375 37.238281 C 202.34375 37.105469 202.335938 36.964844 202.328125 36.816406 C 202.328125 36.671875 202.320312 36.535156 202.3125 36.410156 C 202.3125 36.277344 202.304688 36.15625 202.296875 36.050781 C 202.296875 35.949219 202.296875 35.871094 202.296875 35.816406 L 203.859375 35.816406 C 203.867188 35.871094 203.875 35.949219 203.875 36.050781 C 203.882812 36.15625 203.894531 36.269531 203.90625 36.394531 C 203.914062 36.519531 203.921875 36.644531 203.921875 36.769531 C 203.929688 36.894531 203.9375 37 203.9375 37.082031 L 203.96875 37.082031 C 204.1875 36.59375 204.460938 36.238281 204.796875 36.019531 C 205.128906 35.800781 205.53125 35.691406 206 35.691406 C 206.382812 35.691406 206.707031 35.753906 206.96875 35.878906 C 207.226562 36.003906 207.441406 36.175781 207.609375 36.394531 C 207.773438 36.613281 207.894531 36.875 207.96875 37.175781 C 208.050781 37.46875 208.09375 37.785156 208.09375 38.128906 L 208.09375 42.160156 Z M 212 44.707031 C 211.570312 44.707031 211.195312 44.664062 210.875 44.582031 C 210.5625 44.496094 210.289062 44.378906 210.0625 44.222656 C 209.84375 44.074219 209.664062 43.898438 209.53125 43.691406 C 209.394531 43.480469 209.300781 43.253906 209.25 43.003906 L 210.90625 42.800781 C 210.957031 43.058594 211.082031 43.257812 211.28125 43.394531 C 211.476562 43.539062 211.734375 43.613281 212.046875 43.613281 C 212.234375 43.613281 212.40625 43.585938 212.5625 43.535156 C 212.726562 43.480469 212.867188 43.386719 212.984375 43.253906 C 213.109375 43.128906 213.203125 42.957031 213.265625 42.738281 C 213.328125 42.527344 213.359375 42.261719 213.359375 41.941406 C 213.359375 41.839844 213.359375 41.730469 213.359375 41.613281 C 213.359375 41.5 213.359375 41.394531 213.359375 41.300781 C 213.367188 41.1875 213.375 41.082031 213.375 40.988281 L 213.359375 40.988281 C 213.171875 41.394531 212.898438 41.691406 212.546875 41.878906 C 212.203125 42.058594 211.789062 42.144531 211.3125 42.144531 C 210.914062 42.144531 210.570312 42.066406 210.28125 41.910156 C 209.988281 41.753906 209.742188 41.535156 209.546875 41.253906 C 209.359375 40.964844 209.21875 40.625 209.125 40.238281 C 209.039062 39.84375 209 39.410156 209 38.941406 C 209 38.453125 209.046875 38.011719 209.140625 37.613281 C 209.234375 37.21875 209.378906 36.878906 209.578125 36.597656 C 209.785156 36.308594 210.039062 36.082031 210.34375 35.925781 C 210.65625 35.769531 211.019531 35.691406 211.4375 35.691406 C 211.863281 35.691406 212.242188 35.785156 212.578125 35.972656 C 212.910156 36.152344 213.171875 36.4375 213.359375 36.832031 L 213.390625 36.832031 C 213.390625 36.761719 213.390625 36.671875 213.390625 36.566406 C 213.398438 36.453125 213.40625 36.347656 213.40625 36.253906 C 213.414062 36.152344 213.425781 36.0625 213.4375 35.988281 C 213.445312 35.90625 213.457031 35.847656 213.46875 35.816406 L 215.03125 35.816406 C 215.019531 35.964844 215.007812 36.160156 215 36.410156 C 215 36.660156 215 36.953125 215 37.285156 L 215 41.972656 C 215 42.429688 214.929688 42.832031 214.796875 43.175781 C 214.660156 43.519531 214.460938 43.800781 214.203125 44.019531 C 213.953125 44.246094 213.640625 44.417969 213.265625 44.535156 C 212.890625 44.648438 212.46875 44.707031 212 44.707031 Z M 213.375 38.894531 C 213.375 38.5 213.332031 38.171875 213.25 37.910156 C 213.175781 37.640625 213.078125 37.425781 212.953125 37.269531 C 212.828125 37.105469 212.679688 36.988281 212.515625 36.925781 C 212.359375 36.863281 212.195312 36.832031 212.03125 36.832031 C 211.820312 36.832031 211.632812 36.875 211.46875 36.957031 C 211.300781 37.03125 211.160156 37.15625 211.046875 37.332031 C 210.941406 37.5 210.859375 37.71875 210.796875 37.988281 C 210.734375 38.25 210.703125 38.566406 210.703125 38.941406 C 210.703125 39.621094 210.8125 40.136719 211.03125 40.488281 C 211.25 40.832031 211.578125 41.003906 212.015625 41.003906 C 212.179688 41.003906 212.34375 40.972656 212.5 40.910156 C 212.664062 40.847656 212.8125 40.738281 212.9375 40.582031 C 213.070312 40.417969 213.175781 40.199219 213.25 39.925781 C 213.332031 39.65625 213.375 39.3125 213.375 38.894531 Z M 221.265625 36.925781 L 221.265625 42.160156 L 219.625 42.160156 L 219.625 36.925781 L 218.703125 36.925781 L 218.703125 35.816406 L 219.625 35.816406 L 219.625 35.160156 C 219.625 34.921875 219.65625 34.699219 219.71875 34.488281 C 219.78125 34.28125 219.878906 34.105469 220.015625 33.957031 C 220.160156 33.800781 220.347656 33.683594 220.578125 33.597656 C 220.816406 33.503906 221.117188 33.457031 221.484375 33.457031 C 221.671875 33.457031 221.851562 33.46875 222.03125 33.488281 C 222.207031 33.511719 222.367188 33.53125 222.515625 33.550781 L 222.515625 34.613281 C 222.453125 34.605469 222.375 34.59375 222.28125 34.582031 C 222.195312 34.574219 222.117188 34.566406 222.046875 34.566406 C 221.890625 34.566406 221.757812 34.582031 221.65625 34.613281 C 221.5625 34.644531 221.484375 34.691406 221.421875 34.753906 C 221.367188 34.816406 221.328125 34.894531 221.296875 34.988281 C 221.273438 35.082031 221.265625 35.191406 221.265625 35.316406 L 221.265625 35.816406 L 222.515625 35.816406 L 222.515625 36.925781 Z M 229.359375 38.988281 C 229.359375 39.46875 229.289062 39.910156 229.15625 40.316406 C 229.019531 40.714844 228.816406 41.058594 228.546875 41.347656 C 228.285156 41.640625 227.953125 41.871094 227.546875 42.035156 C 227.140625 42.199219 226.671875 42.285156 226.140625 42.285156 C 225.617188 42.285156 225.160156 42.207031 224.765625 42.050781 C 224.378906 41.886719 224.050781 41.65625 223.78125 41.363281 C 223.507812 41.074219 223.304688 40.730469 223.171875 40.332031 C 223.035156 39.925781 222.96875 39.480469 222.96875 38.988281 C 222.96875 38.511719 223.03125 38.074219 223.15625 37.675781 C 223.289062 37.269531 223.488281 36.921875 223.75 36.628906 C 224.019531 36.339844 224.351562 36.113281 224.75 35.957031 C 225.15625 35.792969 225.628906 35.707031 226.171875 35.707031 C 226.742188 35.707031 227.226562 35.792969 227.625 35.957031 C 228.03125 36.113281 228.359375 36.339844 228.609375 36.628906 C 228.867188 36.921875 229.054688 37.269531 229.171875 37.675781 C 229.296875 38.074219 229.359375 38.511719 229.359375 38.988281 Z M 227.640625 38.988281 C 227.640625 38.230469 227.515625 37.683594 227.265625 37.347656 C 227.023438 37.003906 226.671875 36.832031 226.203125 36.832031 C 225.710938 36.832031 225.335938 37.003906 225.078125 37.347656 C 224.828125 37.691406 224.703125 38.238281 224.703125 38.988281 C 224.703125 39.363281 224.734375 39.691406 224.796875 39.972656 C 224.867188 40.246094 224.96875 40.46875 225.09375 40.644531 C 225.21875 40.8125 225.367188 40.9375 225.546875 41.019531 C 225.722656 41.105469 225.914062 41.144531 226.125 41.144531 C 226.363281 41.144531 226.578125 41.105469 226.765625 41.019531 C 226.953125 40.9375 227.109375 40.8125 227.234375 40.644531 C 227.367188 40.46875 227.46875 40.246094 227.53125 39.972656 C 227.601562 39.691406 227.640625 39.363281 227.640625 38.988281 Z M 230.34375 42.160156 L 230.34375 37.300781 C 230.34375 37.167969 230.335938 37.027344 230.328125 36.878906 C 230.328125 36.722656 230.320312 36.578125 230.3125 36.441406 C 230.3125 36.296875 230.304688 36.171875 230.296875 36.066406 C 230.296875 35.953125 230.296875 35.871094 230.296875 35.816406 L 231.859375 35.816406 C 231.867188 35.871094 231.875 35.953125 231.875 36.066406 C 231.882812 36.183594 231.894531 36.308594 231.90625 36.441406 C 231.914062 36.578125 231.921875 36.714844 231.921875 36.847656 C 231.929688 36.984375 231.9375 37.09375 231.9375 37.175781 L 231.96875 37.175781 C 232.039062 36.949219 232.117188 36.746094 232.203125 36.566406 C 232.285156 36.378906 232.382812 36.222656 232.5 36.097656 C 232.613281 35.964844 232.75 35.863281 232.90625 35.800781 C 233.0625 35.730469 233.253906 35.691406 233.484375 35.691406 C 233.578125 35.691406 233.671875 35.703125 233.765625 35.722656 C 233.859375 35.746094 233.929688 35.765625 233.984375 35.785156 L 233.984375 37.160156 C 233.878906 37.140625 233.773438 37.121094 233.671875 37.097656 C 233.566406 37.078125 233.4375 37.066406 233.28125 37.066406 C 232.875 37.066406 232.554688 37.234375 232.328125 37.566406 C 232.097656 37.902344 231.984375 38.394531 231.984375 39.050781 L 231.984375 42.160156 Z M 239.96875 42.269531 C 239.476562 42.269531 239.101562 42.140625 238.84375 41.878906 C 238.582031 41.609375 238.453125 41.207031 238.453125 40.675781 L 238.453125 36.925781 L 237.640625 36.925781 L 237.640625 35.816406 L 238.53125 35.816406 L 239.046875 34.332031 L 240.078125 34.332031 L 240.078125 35.816406 L 241.28125 35.816406 L 241.28125 36.925781 L 240.078125 36.925781 L 240.078125 40.222656 C 240.078125 40.535156 240.132812 40.765625 240.25 40.910156 C 240.375 41.058594 240.554688 41.128906 240.796875 41.128906 C 240.898438 41.128906 240.992188 41.125 241.078125 41.113281 C 241.160156 41.09375 241.25 41.074219 241.34375 41.050781 L 241.34375 42.066406 C 241.144531 42.128906 240.929688 42.175781 240.703125 42.207031 C 240.472656 42.246094 240.226562 42.269531 239.96875 42.269531 Z M 248.359375 38.988281 C 248.359375 39.46875 248.289062 39.910156 248.15625 40.316406 C 248.019531 40.714844 247.816406 41.058594 247.546875 41.347656 C 247.285156 41.640625 246.953125 41.871094 246.546875 42.035156 C 246.140625 42.199219 245.671875 42.285156 245.140625 42.285156 C 244.617188 42.285156 244.160156 42.207031 243.765625 42.050781 C 243.378906 41.886719 243.050781 41.65625 242.78125 41.363281 C 242.507812 41.074219 242.304688 40.730469 242.171875 40.332031 C 242.035156 39.925781 241.96875 39.480469 241.96875 38.988281 C 241.96875 38.511719 242.03125 38.074219 242.15625 37.675781 C 242.289062 37.269531 242.488281 36.921875 242.75 36.628906 C 243.019531 36.339844 243.351562 36.113281 243.75 35.957031 C 244.15625 35.792969 244.628906 35.707031 245.171875 35.707031 C 245.742188 35.707031 246.226562 35.792969 246.625 35.957031 C 247.03125 36.113281 247.359375 36.339844 247.609375 36.628906 C 247.867188 36.921875 248.054688 37.269531 248.171875 37.675781 C 248.296875 38.074219 248.359375 38.511719 248.359375 38.988281 Z M 246.640625 38.988281 C 246.640625 38.230469 246.515625 37.683594 246.265625 37.347656 C 246.023438 37.003906 245.671875 36.832031 245.203125 36.832031 C 244.710938 36.832031 244.335938 37.003906 244.078125 37.347656 C 243.828125 37.691406 243.703125 38.238281 243.703125 38.988281 C 243.703125 39.363281 243.734375 39.691406 243.796875 39.972656 C 243.867188 40.246094 243.96875 40.46875 244.09375 40.644531 C 244.21875 40.8125 244.367188 40.9375 244.546875 41.019531 C 244.722656 41.105469 244.914062 41.144531 245.125 41.144531 C 245.363281 41.144531 245.578125 41.105469 245.765625 41.019531 C 245.953125 40.9375 246.109375 40.8125 246.234375 40.644531 C 246.367188 40.46875 246.46875 40.246094 246.53125 39.972656 C 246.601562 39.691406 246.640625 39.363281 246.640625 38.988281 Z M 253.453125 42.160156 C 253.441406 42.128906 253.429688 42.078125 253.421875 42.003906 C 253.410156 41.921875 253.398438 41.828125 253.390625 41.722656 C 253.378906 41.621094 253.367188 41.515625 253.359375 41.410156 C 253.359375 41.308594 253.359375 41.214844 253.359375 41.128906 L 253.328125 41.128906 C 253.140625 41.535156 252.875 41.832031 252.53125 42.019531 C 252.1875 42.195312 251.78125 42.285156 251.3125 42.285156 C 250.90625 42.285156 250.554688 42.199219 250.265625 42.035156 C 249.984375 41.871094 249.742188 41.640625 249.546875 41.347656 C 249.359375 41.058594 249.21875 40.714844 249.125 40.316406 C 249.039062 39.910156 249 39.46875 249 38.988281 C 249 38.511719 249.046875 38.074219 249.140625 37.675781 C 249.234375 37.269531 249.378906 36.921875 249.578125 36.628906 C 249.773438 36.339844 250.023438 36.113281 250.328125 35.957031 C 250.640625 35.792969 251.007812 35.707031 251.4375 35.707031 C 251.632812 35.707031 251.828125 35.730469 252.015625 35.769531 C 252.210938 35.8125 252.394531 35.878906 252.5625 35.972656 C 252.726562 36.058594 252.875 36.171875 253 36.316406 C 253.132812 36.453125 253.25 36.621094 253.34375 36.816406 L 253.359375 36.816406 C 253.359375 36.785156 253.359375 36.734375 253.359375 36.660156 C 253.359375 36.578125 253.359375 36.488281 253.359375 36.394531 C 253.359375 36.292969 253.351562 36.1875 253.34375 36.082031 C 253.34375 35.980469 253.34375 35.878906 253.34375 35.785156 L 253.34375 33.457031 L 255 33.457031 L 255 40.769531 C 255 41.082031 255.003906 41.359375 255.015625 41.597656 C 255.023438 41.839844 255.035156 42.027344 255.046875 42.160156 Z M 253.375 38.957031 C 253.375 38.542969 253.332031 38.199219 253.25 37.925781 C 253.175781 37.644531 253.070312 37.425781 252.9375 37.269531 C 252.8125 37.105469 252.664062 36.988281 252.5 36.925781 C 252.34375 36.855469 252.179688 36.816406 252.015625 36.816406 C 251.804688 36.816406 251.617188 36.859375 251.453125 36.941406 C 251.296875 37.027344 251.160156 37.15625 251.046875 37.332031 C 250.929688 37.511719 250.84375 37.734375 250.78125 38.003906 C 250.726562 38.277344 250.703125 38.605469 250.703125 38.988281 C 250.703125 40.425781 251.132812 41.144531 252 41.144531 C 252.164062 41.144531 252.332031 41.113281 252.5 41.050781 C 252.664062 40.980469 252.8125 40.859375 252.9375 40.691406 C 253.0625 40.527344 253.164062 40.300781 253.25 40.019531 C 253.332031 39.730469 253.375 39.375 253.375 38.957031 Z M 260.453125 42.160156 C 260.441406 42.128906 260.429688 42.078125 260.421875 42.003906 C 260.410156 41.921875 260.398438 41.828125 260.390625 41.722656 C 260.378906 41.621094 260.367188 41.515625 260.359375 41.410156 C 260.359375 41.308594 260.359375 41.214844 260.359375 41.128906 L 260.328125 41.128906 C 260.140625 41.535156 259.875 41.832031 259.53125 42.019531 C 259.1875 42.195312 258.78125 42.285156 258.3125 42.285156 C 257.90625 42.285156 257.554688 42.199219 257.265625 42.035156 C 256.984375 41.871094 256.742188 41.640625 256.546875 41.347656 C 256.359375 41.058594 256.21875 40.714844 256.125 40.316406 C 256.039062 39.910156 256 39.46875 256 38.988281 C 256 38.511719 256.046875 38.074219 256.140625 37.675781 C 256.234375 37.269531 256.378906 36.921875 256.578125 36.628906 C 256.773438 36.339844 257.023438 36.113281 257.328125 35.957031 C 257.640625 35.792969 258.007812 35.707031 258.4375 35.707031 C 258.632812 35.707031 258.828125 35.730469 259.015625 35.769531 C 259.210938 35.8125 259.394531 35.878906 259.5625 35.972656 C 259.726562 36.058594 259.875 36.171875 260 36.316406 C 260.132812 36.453125 260.25 36.621094 260.34375 36.816406 L 260.359375 36.816406 C 260.359375 36.785156 260.359375 36.734375 260.359375 36.660156 C 260.359375 36.578125 260.359375 36.488281 260.359375 36.394531 C 260.359375 36.292969 260.351562 36.1875 260.34375 36.082031 C 260.34375 35.980469 260.34375 35.878906 260.34375 35.785156 L 260.34375 33.457031 L 262 33.457031 L 262 40.769531 C 262 41.082031 262.003906 41.359375 262.015625 41.597656 C 262.023438 41.839844 262.035156 42.027344 262.046875 42.160156 Z M 260.375 38.957031 C 260.375 38.542969 260.332031 38.199219 260.25 37.925781 C 260.175781 37.644531 260.070312 37.425781 259.9375 37.269531 C 259.8125 37.105469 259.664062 36.988281 259.5 36.925781 C 259.34375 36.855469 259.179688 36.816406 259.015625 36.816406 C 258.804688 36.816406 258.617188 36.859375 258.453125 36.941406 C 258.296875 37.027344 258.160156 37.15625 258.046875 37.332031 C 257.929688 37.511719 257.84375 37.734375 257.78125 38.003906 C 257.726562 38.277344 257.703125 38.605469 257.703125 38.988281 C 257.703125 40.425781 258.132812 41.144531 259 41.144531 C 259.164062 41.144531 259.332031 41.113281 259.5 41.050781 C 259.664062 40.980469 259.8125 40.859375 259.9375 40.691406 C 260.0625 40.527344 260.164062 40.300781 260.25 40.019531 C 260.332031 39.730469 260.375 39.375 260.375 38.957031 Z M 263.34375 42.160156 L 263.34375 33.457031 L 264.984375 33.457031 L 264.984375 42.160156 Z M 268.9375 42.285156 C 268.476562 42.285156 268.066406 42.214844 267.703125 42.082031 C 267.335938 41.949219 267.023438 41.746094 266.765625 41.472656 C 266.503906 41.191406 266.304688 40.84375 266.171875 40.425781 C 266.035156 40.011719 265.96875 39.519531 265.96875 38.957031 C 265.96875 38.355469 266.046875 37.847656 266.203125 37.441406 C 266.367188 37.027344 266.585938 36.6875 266.859375 36.425781 C 267.140625 36.167969 267.457031 35.984375 267.8125 35.878906 C 268.175781 35.765625 268.554688 35.707031 268.953125 35.707031 C 269.453125 35.707031 269.878906 35.796875 270.234375 35.972656 C 270.585938 36.140625 270.878906 36.378906 271.109375 36.691406 C 271.335938 37.003906 271.503906 37.378906 271.609375 37.816406 C 271.710938 38.253906 271.765625 38.734375 271.765625 39.253906 L 271.765625 39.300781 L 267.703125 39.300781 C 267.703125 39.574219 267.722656 39.824219 267.765625 40.050781 C 267.816406 40.28125 267.894531 40.480469 268 40.644531 C 268.101562 40.8125 268.238281 40.941406 268.40625 41.035156 C 268.570312 41.128906 268.773438 41.175781 269.015625 41.175781 C 269.304688 41.175781 269.539062 41.113281 269.71875 40.988281 C 269.90625 40.863281 270.039062 40.675781 270.125 40.425781 L 271.671875 40.550781 C 271.597656 40.730469 271.5 40.921875 271.375 41.128906 C 271.25 41.328125 271.078125 41.515625 270.859375 41.691406 C 270.648438 41.859375 270.390625 42 270.078125 42.113281 C 269.765625 42.226562 269.382812 42.285156 268.9375 42.285156 Z M 268.9375 36.738281 C 268.769531 36.738281 268.613281 36.769531 268.46875 36.832031 C 268.320312 36.886719 268.191406 36.972656 268.078125 37.097656 C 267.972656 37.222656 267.882812 37.386719 267.8125 37.582031 C 267.75 37.769531 267.710938 38 267.703125 38.269531 L 270.171875 38.269531 C 270.140625 37.761719 270.015625 37.378906 269.796875 37.128906 C 269.585938 36.871094 269.300781 36.738281 268.9375 36.738281 Z M 273.34375 42.160156 L 273.34375 37.300781 C 273.34375 37.167969 273.335938 37.027344 273.328125 36.878906 C 273.328125 36.722656 273.320312 36.578125 273.3125 36.441406 C 273.3125 36.296875 273.304688 36.171875 273.296875 36.066406 C 273.296875 35.953125 273.296875 35.871094 273.296875 35.816406 L 274.859375 35.816406 C 274.867188 35.871094 274.875 35.953125 274.875 36.066406 C 274.882812 36.183594 274.894531 36.308594 274.90625 36.441406 C 274.914062 36.578125 274.921875 36.714844 274.921875 36.847656 C 274.929688 36.984375 274.9375 37.09375 274.9375 37.175781 L 274.96875 37.175781 C 275.039062 36.949219 275.117188 36.746094 275.203125 36.566406 C 275.285156 36.378906 275.382812 36.222656 275.5 36.097656 C 275.613281 35.964844 275.75 35.863281 275.90625 35.800781 C 276.0625 35.730469 276.253906 35.691406 276.484375 35.691406 C 276.578125 35.691406 276.671875 35.703125 276.765625 35.722656 C 276.859375 35.746094 276.929688 35.765625 276.984375 35.785156 L 276.984375 37.160156 C 276.878906 37.140625 276.773438 37.121094 276.671875 37.097656 C 276.566406 37.078125 276.4375 37.066406 276.28125 37.066406 C 275.875 37.066406 275.554688 37.234375 275.328125 37.566406 C 275.097656 37.902344 274.984375 38.394531 274.984375 39.050781 L 274.984375 42.160156 Z M 168.5 31.296875 "/>
<path style="fill-rule:nonzero;fill:rgb(52.941176%,70.588235%,90.980392%);fill-opacity:1;stroke-width:2;stroke-linecap:butt;stroke-linejoin:bevel;stroke:rgb(100%,100%,100%);stroke-opacity:1;stroke-miterlimit:10;" d="M 200 55 C 239.054688 55 275.746094 73.695312 298.699219 105.289062 C 321.65625 136.882812 328.097656 177.558594 316.027344 214.699219 L 200 177 Z M 200 55 "/>
<path style="fill-rule:nonzero;fill:rgb(73.333333%,48.235294%,85.882353%);fill-opacity:1;stroke-width:2;stroke-linecap:butt;stroke-linejoin:bevel;stroke:rgb(100%,100%,100%);stroke-opacity:1;stroke-miterlimit:10;" d="M 316.027344 214.699219 C 303.960938 251.839844 274.839844 280.960938 237.699219 293.027344 C 200.558594 305.097656 159.882812 298.65625 128.289062 275.699219 C 96.695312 252.746094 78 216.054688 78 177 C 78 137.945312 96.695312 101.253906 128.289062 78.300781 L 200 177 Z M 316.027344 214.699219 "/>
<path style="fill-rule:nonzero;fill:rgb(39.215686%,90.980392%,23.529412%);fill-opacity:1;stroke-width:2;stroke-linecap:butt;stroke-linejoin:bevel;stroke:rgb(100%,100%,100%);stroke-opacity:1;stroke-miterlimit:10;" d="M 128.289062 78.300781 C 149.132812 63.15625 174.234375 55 200 55 L 200 177 Z M 128.289062 78.300781 "/>
</g>
</svg>
