<?xml version="1.0" encoding="UTF-8"?>
<svg xmlns="http://www.w3.org/2000/svg" xmlns:xlink="http://www.w3.org/1999/xlink" width="400pt" height="300pt" viewBox="0 0 400 300" version="1.1">
<g id="surface1">
<path style="fill-rule:nonzero;fill:rgb(52.941176%,70.588235%,90.980392%);fill-opacity:1;stroke-width:2;stroke-linecap:butt;stroke-linejoin:miter;stroke:rgb(100%,100%,100%);stroke-opacity:1;stroke-miterlimit:10;" d="M 38.5 10 L 78.5 10 L 78.5 22 L 38.5 22 Z M 38.5 10 "/>
<path style=" stroke:none;fill-rule:nonzero;fill:rgb(40%,40%,40%);fill-opacity:1;" d="M 87.0625 10 L 85.25 10 L 85.25 18.75 L 87.0625 18.75 Z M 88.25 12.265625 L 88.25 18.75 L 89.9375 18.75 L 89.9375 14.859375 C 89.9375 14.09375 90.46875 13.59375 91.296875 13.59375 C 92.015625 13.59375 92.375 13.984375 92.375 14.75 L 92.375 18.75 L 94.046875 18.75 L 94.046875 14.40625 C 94.046875 12.96875 93.265625 12.15625 91.875 12.15625 C 91 12.15625 90.421875 12.46875 89.9375 13.203125 L 89.9375 12.265625 Z M 101.109375 12.40625 L 100.171875 12.40625 L 100.171875 10.65625 L 98.5 10.65625 L 98.5 12.40625 L 97.671875 12.40625 L 97.671875 13.515625 L 98.5 13.515625 L 98.5 17.5 C 98.5 18.515625 99.03125 19.03125 100.140625 19.03125 C 100.53125 19.03125 100.796875 18.984375 101.109375 18.890625 L 101.109375 17.71875 C 100.9375 17.734375 100.859375 17.75 100.734375 17.75 C 100.28125 17.75 100.171875 17.625 100.171875 17.046875 L 100.171875 13.515625 L 101.109375 13.515625 Z M 102.296875 10 L 102.296875 18.75 L 103.984375 18.75 L 103.984375 14.859375 C 103.984375 14.125 104.53125 13.59375 105.28125 13.59375 C 105.65625 13.59375 105.921875 13.71875 106.125 13.984375 C 106.28125 14.203125 106.3125 14.375 106.3125 14.796875 L 106.3125 18.75 L 107.984375 18.75 L 107.984375 14.40625 C 107.984375 13.609375 107.78125 13.03125 107.328125 12.65625 C 106.953125 12.34375 106.421875 12.15625 105.875 12.15625 C 105.046875 12.15625 104.453125 12.484375 103.984375 13.203125 L 103.984375 10 Z M 114.78125 16.03125 C 114.796875 15.890625 114.796875 15.828125 114.796875 15.75 C 114.796875 15.109375 114.703125 14.5 114.546875 14.046875 C 114.109375 12.875 113.078125 12.15625 111.765625 12.15625 C 109.90625 12.15625 108.765625 13.5 108.765625 15.671875 C 108.765625 17.75 109.890625 19.03125 111.734375 19.03125 C 113.1875 19.03125 114.359375 18.203125 114.734375 16.921875 L 113.078125 16.921875 C 112.875 17.4375 112.40625 17.734375 111.78125 17.734375 C 111.3125 17.734375 110.921875 17.53125 110.6875 17.171875 C 110.53125 16.9375 110.46875 16.65625 110.4375 16.03125 Z M 110.46875 14.921875 C 110.578125 13.921875 111 13.453125 111.734375 13.453125 C 112.515625 13.453125 112.96875 13.96875 113.046875 14.921875 Z M 119.296875 10 L 119.296875 18.75 L 120.984375 18.75 L 120.984375 14.859375 C 120.984375 14.125 121.53125 13.59375 122.28125 13.59375 C 122.65625 13.59375 122.921875 13.71875 123.125 13.984375 C 123.28125 14.203125 123.3125 14.375 123.3125 14.796875 L 123.3125 18.75 L 124.984375 18.75 L 124.984375 14.40625 C 124.984375 13.609375 124.78125 13.03125 124.328125 12.65625 C 123.953125 12.34375 123.421875 12.15625 122.875 12.15625 C 122.046875 12.15625 121.453125 12.484375 120.984375 13.203125 L 120.984375 10 Z M 129.109375 12.15625 C 127.125 12.15625 125.921875 13.46875 125.921875 15.59375 C 125.921875 17.734375 127.125 19.03125 129.125 19.03125 C 131.109375 19.03125 132.328125 17.734375 132.328125 15.640625 C 132.328125 13.453125 131.140625 12.15625 129.109375 12.15625 Z M 129.125 13.515625 C 130.046875 13.515625 130.640625 14.34375 130.640625 15.625 C 130.640625 16.828125 130.03125 17.671875 129.125 17.671875 C 128.21875 17.671875 127.59375 16.84375 127.59375 15.59375 C 127.59375 14.34375 128.21875 13.515625 129.125 13.515625 Z M 133.21875 12.265625 L 133.21875 18.75 L 134.90625 18.75 L 134.90625 14.859375 C 134.90625 14.0625 135.328125 13.59375 136.046875 13.59375 C 136.609375 13.59375 136.96875 13.90625 136.96875 14.4375 L 136.96875 18.75 L 138.640625 18.75 L 138.640625 14.859375 C 138.640625 14.0625 139.078125 13.59375 139.796875 13.59375 C 140.359375 13.59375 140.703125 13.90625 140.703125 14.4375 L 140.703125 18.75 L 142.390625 18.75 L 142.390625 14.171875 C 142.390625 12.90625 141.625 12.15625 140.328125 12.15625 C 139.5 12.15625 138.9375 12.453125 138.421875 13.125 C 138.109375 12.515625 137.46875 12.15625 136.65625 12.15625 C 135.921875 12.15625 135.4375 12.40625 134.890625 13.078125 L 134.890625 12.265625 Z M 149.78125 16.03125 C 149.796875 15.890625 149.796875 15.828125 149.796875 15.75 C 149.796875 15.109375 149.703125 14.5 149.546875 14.046875 C 149.109375 12.875 148.078125 12.15625 146.765625 12.15625 C 144.90625 12.15625 143.765625 13.5 143.765625 15.671875 C 143.765625 17.75 144.890625 19.03125 146.734375 19.03125 C 148.1875 19.03125 149.359375 18.203125 149.734375 16.921875 L 148.078125 16.921875 C 147.875 17.4375 147.40625 17.734375 146.78125 17.734375 C 146.3125 17.734375 145.921875 17.53125 145.6875 17.171875 C 145.53125 16.9375 145.46875 16.65625 145.4375 16.03125 Z M 145.46875 14.921875 C 145.578125 13.921875 146 13.453125 146.734375 13.453125 C 147.515625 13.453125 147.96875 13.96875 148.046875 14.921875 Z M 157.109375 12.15625 C 155.125 12.15625 153.921875 13.46875 153.921875 15.59375 C 153.921875 17.734375 155.125 19.03125 157.125 19.03125 C 159.109375 19.03125 160.328125 17.734375 160.328125 15.640625 C 160.328125 13.453125 159.140625 12.15625 157.109375 12.15625 Z M 157.125 13.515625 C 158.046875 13.515625 158.640625 14.34375 158.640625 15.625 C 158.640625 16.828125 158.03125 17.671875 157.125 17.671875 C 156.21875 17.671875 155.59375 16.84375 155.59375 15.59375 C 155.59375 14.34375 156.21875 13.515625 157.125 13.515625 Z M 164.25 12.40625 L 163.265625 12.40625 L 163.265625 11.765625 C 163.265625 11.4375 163.40625 11.265625 163.71875 11.265625 C 163.875 11.265625 164.03125 11.28125 164.203125 11.296875 L 164.203125 10.03125 C 163.84375 10.015625 163.484375 10 163.234375 10 C 162.125 10 161.578125 10.53125 161.578125 11.625 L 161.578125 12.40625 L 160.671875 12.40625 L 160.671875 13.515625 L 161.578125 13.515625 L 161.578125 18.75 L 163.265625 18.75 L 163.265625 13.515625 L 164.25 13.515625 Z M 168.25 12.40625 L 167.25 12.40625 L 167.25 11.765625 C 167.25 11.4375 167.40625 11.265625 167.71875 11.265625 C 167.875 11.265625 168.03125 11.28125 168.1875 11.296875 L 168.1875 10.03125 C 167.828125 10.015625 167.484375 10 167.234375 10 C 166.109375 10 165.578125 10.53125 165.578125 11.625 L 165.578125 12.40625 L 164.65625 12.40625 L 164.65625 13.515625 L 165.578125 13.515625 L 165.578125 18.75 L 167.25 18.75 L 167.25 13.515625 L 168.25 13.515625 Z M 170.96875 12.265625 L 169.296875 12.265625 L 169.296875 18.75 L 170.96875 18.75 Z M 170.96875 10 L 169.296875 10 L 169.296875 11.5 L 170.96875 11.5 Z M 177.765625 14.6875 C 177.640625 13.109375 176.59375 12.15625 174.96875 12.15625 C 173.03125 12.15625 171.90625 13.4375 171.90625 15.640625 C 171.90625 17.78125 173.03125 19.03125 174.9375 19.03125 C 176.515625 19.03125 177.609375 18.046875 177.765625 16.5 L 176.15625 16.5 C 175.953125 17.34375 175.609375 17.671875 174.9375 17.671875 C 174.09375 17.671875 173.59375 16.90625 173.59375 15.640625 C 173.59375 15.015625 173.703125 14.453125 173.90625 14.0625 C 174.109375 13.703125 174.46875 13.515625 174.953125 13.515625 C 175.640625 13.515625 175.96875 13.84375 176.15625 14.6875 Z M 184.78125 16.03125 C 184.796875 15.890625 184.796875 15.828125 184.796875 15.75 C 184.796875 15.109375 184.703125 14.5 184.546875 14.046875 C 184.109375 12.875 183.078125 12.15625 181.765625 12.15625 C 179.90625 12.15625 178.765625 13.5 178.765625 15.671875 C 178.765625 17.75 179.890625 19.03125 181.734375 19.03125 C 183.1875 19.03125 184.359375 18.203125 184.734375 16.921875 L 183.078125 16.921875 C 182.875 17.4375 182.40625 17.734375 181.78125 17.734375 C 181.3125 17.734375 180.921875 17.53125 180.6875 17.171875 C 180.53125 16.9375 180.46875 16.65625 180.4375 16.03125 Z M 180.46875 14.921875 C 180.578125 13.921875 181 13.453125 181.734375 13.453125 C 182.515625 13.453125 182.96875 13.96875 183.046875 14.921875 Z M 84.5 10 "/>
<path style="fill-rule:nonzero;fill:rgb(73.333333%,48.235294%,85.882353%);fill-opacity:1;stroke-width:2;stroke-linecap:butt;stroke-linejoin:miter;stroke:rgb(100%,100%,100%);stroke-opacity:1;stroke-miterlimit:10;" d="M 195.5 10 L 235.5 10 L 235.5 22 L 195.5 22 Z M 195.5 10 "/>
<path style=" stroke:none;fill-rule:nonzero;fill:rgb(40%,40%,40%);fill-opacity:1;" d="M 244.265625 15.28125 L 246.328125 15.28125 C 247.109375 15.28125 247.4375 15.59375 247.4375 16.3125 L 247.4375 16.671875 C 247.421875 16.90625 247.421875 17.125 247.421875 17.25 C 247.421875 18.078125 247.46875 18.328125 247.6875 18.75 L 249.625 18.75 L 249.625 18.421875 C 249.34375 18.265625 249.234375 18.09375 249.234375 17.703125 C 249.1875 15.125 249.140625 15 248.03125 14.53125 C 249.015625 14.140625 249.5 13.4375 249.5 12.359375 C 249.5 11.671875 249.265625 11.03125 248.84375 10.609375 C 248.453125 10.1875 247.890625 10 247.15625 10 L 242.453125 10 L 242.453125 18.75 L 244.265625 18.75 Z M 244.265625 13.78125 L 244.265625 11.5 L 246.4375 11.5 C 246.953125 11.5 247.15625 11.546875 247.375 11.734375 C 247.59375 11.90625 247.703125 12.203125 247.703125 12.625 C 247.703125 13.03125 247.59375 13.375 247.375 13.546875 C 247.171875 13.71875 246.953125 13.78125 246.4375 13.78125 Z M 256.984375 18.75 L 256.984375 12.265625 L 255.3125 12.265625 L 255.3125 16.328125 C 255.3125 17.09375 254.78125 17.59375 253.953125 17.59375 C 253.234375 17.59375 252.875 17.21875 252.875 16.4375 L 252.875 12.265625 L 251.203125 12.265625 L 251.203125 16.78125 C 251.203125 18.21875 251.96875 19.03125 253.375 19.03125 C 254.25 19.03125 254.828125 18.71875 255.3125 17.984375 L 255.3125 18.75 Z M 258.25 12.265625 L 258.25 18.75 L 259.9375 18.75 L 259.9375 14.859375 C 259.9375 14.09375 260.46875 13.59375 261.296875 13.59375 C 262.015625 13.59375 262.375 13.984375 262.375 14.75 L 262.375 18.75 L 264.046875 18.75 L 264.046875 14.40625 C 264.046875 12.96875 263.265625 12.15625 261.875 12.15625 C 261 12.15625 260.421875 12.46875 259.9375 13.203125 L 259.9375 12.265625 Z M 265.25 12.265625 L 265.25 18.75 L 266.9375 18.75 L 266.9375 14.859375 C 266.9375 14.09375 267.46875 13.59375 268.296875 13.59375 C 269.015625 13.59375 269.375 13.984375 269.375 14.75 L 269.375 18.75 L 271.046875 18.75 L 271.046875 14.40625 C 271.046875 12.96875 270.265625 12.15625 268.875 12.15625 C 268 12.15625 267.421875 12.46875 266.9375 13.203125 L 266.9375 12.265625 Z M 273.984375 12.265625 L 272.296875 12.265625 L 272.296875 18.75 L 273.984375 18.75 Z M 273.984375 10 L 272.296875 10 L 272.296875 11.5 L 273.984375 11.5 Z M 275.25 12.265625 L 275.25 18.75 L 276.9375 18.75 L 276.9375 14.859375 C 276.9375 14.09375 277.46875 13.59375 278.296875 13.59375 C 279.015625 13.59375 279.375 13.984375 279.375 14.75 L 279.375 18.75 L 281.046875 18.75 L 281.046875 14.40625 C 281.046875 12.96875 280.265625 12.15625 278.875 12.15625 C 278 12.15625 277.421875 12.46875 276.9375 13.203125 L 276.9375 12.265625 Z M 286.296875 12.265625 L 286.296875 13.265625 C 285.828125 12.515625 285.3125 12.15625 284.625 12.15625 C 284.0625 12.15625 283.421875 12.453125 282.96875 12.921875 C 282.328125 13.59375 281.984375 14.53125 281.984375 15.671875 C 281.984375 17.65625 283.046875 19.03125 284.59375 19.03125 C 285.296875 19.03125 285.71875 18.796875 286.296875 18.09375 L 286.296875 18.96875 C 286.296875 19.75 285.75 20.28125 284.953125 20.28125 C 284.359375 20.28125 283.984375 20.015625 283.859375 19.53125 L 282.125 19.53125 C 282.140625 20.03125 282.3125 20.375 282.765625 20.734375 C 283.28125 21.15625 283.984375 21.359375 284.890625 21.359375 C 286.765625 21.359375 287.890625 20.46875 287.890625 18.96875 L 287.890625 12.265625 Z M 284.9375 13.5625 C 285.734375 13.5625 286.328125 14.4375 286.328125 15.640625 C 286.328125 16.8125 285.765625 17.625 284.921875 17.625 C 284.1875 17.625 283.671875 16.8125 283.671875 15.640625 C 283.671875 14.421875 284.1875 13.5625 284.9375 13.5625 Z M 297.78125 18.546875 C 297.5 18.265625 297.40625 18.078125 297.40625 17.75 L 297.40625 14.15625 C 297.40625 12.828125 296.5 12.15625 294.75 12.15625 C 293 12.15625 292.09375 12.90625 291.984375 14.40625 L 293.59375 14.40625 C 293.6875 13.734375 293.953125 13.515625 294.78125 13.515625 C 295.4375 13.515625 295.765625 13.734375 295.765625 14.171875 C 295.765625 14.375 295.65625 14.5625 295.46875 14.671875 C 295.25 14.796875 295.25 14.796875 294.421875 14.921875 L 293.75 15.046875 C 292.453125 15.265625 291.84375 15.921875 291.84375 17.078125 C 291.84375 18.25 292.609375 19.03125 293.796875 19.03125 C 294.53125 19.03125 295.171875 18.71875 295.765625 18.109375 C 295.765625 18.4375 295.8125 18.5625 295.96875 18.75 L 297.78125 18.75 Z M 295.765625 16.140625 C 295.765625 17.125 295.28125 17.671875 294.421875 17.671875 C 293.859375 17.671875 293.515625 17.375 293.515625 16.890625 C 293.515625 16.390625 293.78125 16.140625 294.46875 16 L 295.046875 15.890625 C 295.5 15.8125 295.5625 15.78125 295.765625 15.6875 Z M 302.25 12.40625 L 301.265625 12.40625 L 301.265625 11.765625 C 301.265625 11.4375 301.40625 11.265625 301.71875 11.265625 C 301.875 11.265625 302.03125 11.28125 302.203125 11.296875 L 302.203125 10.03125 C 301.84375 10.015625 301.484375 10 301.234375 10 C 300.125 10 299.578125 10.53125 299.578125 11.625 L 299.578125 12.40625 L 298.671875 12.40625 L 298.671875 13.515625 L 299.578125 13.515625 L 299.578125 18.75 L 301.265625 18.75 L 301.265625 13.515625 L 302.25 13.515625 Z M 306.109375 12.40625 L 305.171875 12.40625 L 305.171875 10.65625 L 303.5 10.65625 L 303.5 12.40625 L 302.671875 12.40625 L 302.671875 13.515625 L 303.5 13.515625 L 303.5 17.5 C 303.5 18.515625 304.03125 19.03125 305.140625 19.03125 C 305.53125 19.03125 305.796875 18.984375 306.109375 18.890625 L 306.109375 17.71875 C 305.9375 17.734375 305.859375 17.75 305.734375 17.75 C 305.28125 17.75 305.171875 17.625 305.171875 17.046875 L 305.171875 13.515625 L 306.109375 13.515625 Z M 312.78125 16.03125 C 312.796875 15.890625 312.796875 15.828125 312.796875 15.75 C 312.796875 15.109375 312.703125 14.5 312.546875 14.046875 C 312.109375 12.875 311.078125 12.15625 309.765625 12.15625 C 307.90625 12.15625 306.765625 13.5 306.765625 15.671875 C 306.765625 17.75 307.890625 19.03125 309.734375 19.03125 C 311.1875 19.03125 312.359375 18.203125 312.734375 16.921875 L 311.078125 16.921875 C 310.875 17.4375 310.40625 17.734375 309.78125 17.734375 C 309.3125 17.734375 308.921875 17.53125 308.6875 17.171875 C 308.53125 16.9375 308.46875 16.65625 308.4375 16.03125 Z M 308.46875 14.921875 C 308.578125 13.921875 309 13.453125 309.734375 13.453125 C 310.515625 13.453125 310.96875 13.96875 311.046875 14.921875 Z M 314.25 12.265625 L 314.25 18.75 L 315.9375 18.75 L 315.9375 15.3125 C 315.9375 14.328125 316.421875 13.828125 317.40625 13.828125 C 317.59375 13.828125 317.71875 13.84375 317.9375 13.875 L 317.9375 12.171875 C 317.84375 12.15625 317.8125 12.15625 317.734375 12.15625 C 316.96875 12.15625 316.3125 12.671875 315.9375 13.546875 L 315.9375 12.265625 Z M 325.109375 12.40625 L 324.171875 12.40625 L 324.171875 10.65625 L 322.5 10.65625 L 322.5 12.40625 L 321.671875 12.40625 L 321.671875 13.515625 L 322.5 13.515625 L 322.5 17.5 C 322.5 18.515625 323.03125 19.03125 324.140625 19.03125 C 324.53125 19.03125 324.796875 18.984375 325.109375 18.890625 L 325.109375 17.71875 C 324.9375 17.734375 324.859375 17.75 324.734375 17.75 C 324.28125 17.75 324.171875 17.625 324.171875 17.046875 L 324.171875 13.515625 L 325.109375 13.515625 Z M 329.109375 12.15625 C 327.125 12.15625 325.921875 13.46875 325.921875 15.59375 C 325.921875 17.734375 327.125 19.03125 329.125 19.03125 C 331.109375 19.03125 332.328125 17.734375 332.328125 15.640625 C 332.328125 13.453125 331.140625 12.15625 329.109375 12.15625 Z M 329.125 13.515625 C 330.046875 13.515625 330.640625 14.34375 330.640625 15.625 C 330.640625 16.828125 330.03125 17.671875 329.125 17.671875 C 328.21875 17.671875 327.59375 16.84375 327.59375 15.59375 C 327.59375 14.34375 328.21875 13.515625 329.125 13.515625 Z M 337.359375 18.75 L 339.046875 18.75 L 339.046875 10 L 337.359375 10 L 337.359375 13.109375 C 336.9375 12.46875 336.390625 12.15625 335.578125 12.15625 C 334.03125 12.15625 332.84375 13.65625 332.84375 15.609375 C 332.84375 16.484375 333.109375 17.375 333.546875 18 C 333.984375 18.625 334.78125 19.03125 335.578125 19.03125 C 336.390625 19.03125 336.9375 18.734375 337.359375 18.09375 Z M 335.9375 13.5625 C 336.796875 13.5625 337.359375 14.375 337.359375 15.625 C 337.359375 16.8125 336.78125 17.625 335.9375 17.625 C 335.109375 17.625 334.53125 16.796875 334.53125 15.609375 C 334.53125 14.390625 335.109375 13.5625 335.9375 13.5625 Z M 344.359375 18.75 L 346.046875 18.75 L 346.046875 10 L 344.359375 10 L 344.359375 13.109375 C 343.9375 12.46875 343.390625 12.15625 342.578125 12.15625 C 341.03125 12.15625 339.84375 13.65625 339.84375 15.609375 C 339.84375 16.484375 340.109375 17.375 340.546875 18 C 340.984375 18.625 341.78125 19.03125 342.578125 19.03125 C 343.390625 19.03125 343.9375 18.734375 344.359375 18.09375 Z M 342.9375 13.5625 C 343.796875 13.5625 344.359375 14.375 344.359375 15.625 C 344.359375 16.8125 343.78125 17.625 342.9375 17.625 C 342.109375 17.625 341.53125 16.796875 341.53125 15.609375 C 341.53125 14.390625 342.109375 13.5625 342.9375 13.5625 Z M 348.984375 10 L 347.296875 10 L 347.296875 18.75 L 348.984375 18.75 Z M 355.78125 16.03125 C 355.796875 15.890625 355.796875 15.828125 355.796875 15.75 C 355.796875 15.109375 355.703125 14.5 355.546875 14.046875 C 355.109375 12.875 354.078125 12.15625 352.765625 12.15625 C 350.90625 12.15625 349.765625 13.5 349.765625 15.671875 C 349.765625 17.75 350.890625 19.03125 352.734375 19.03125 C 354.1875 19.03125 355.359375 18.203125 355.734375 16.921875 L 354.078125 16.921875 C 353.875 17.4375 353.40625 17.734375 352.78125 17.734375 C 352.3125 17.734375 351.921875 17.53125 351.6875 17.171875 C 351.53125 16.9375 351.46875 16.65625 351.4375 16.03125 Z M 351.46875 14.921875 C 351.578125 13.921875 352 13.453125 352.734375 13.453125 C 353.515625 13.453125 353.96875 13.96875 354.046875 14.921875 Z M 357.25 12.265625 L 357.25 18.75 L 358.9375 18.75 L 358.9375 15.3125 C 358.9375 14.328125 359.421875 13.828125 360.40625 13.828125 C 360.59375 13.828125 360.71875 13.84375 360.9375 13.875 L 360.9375 12.171875 C 360.84375 12.15625 360.8125 12.15625 360.734375 12.15625 C 359.96875 12.15625 359.3125 12.671875 358.9375 13.546875 L 358.9375 12.265625 Z M 241.5 10 "/>
<path style="fill-rule:nonzero;fill:rgb(39.215686%,90.980392%,23.529412%);fill-opacity:1;stroke-width:2;stroke-linecap:butt;stroke-linejoin:miter;stroke:rgb(100%,100%,100%);stroke-opacity:1;stroke-miterlimit:10;" d="M 122.5 32 L 162.5 32 L 162.5 44 L 122.5 44 Z M 122.5 32 "/>
<path style=" stroke:none;fill-rule:nonzero;fill:rgb(40%,40%,40%);fill-opacity:1;" d="M 176.6875 34.96875 C 176.625 34.203125 176.46875 33.734375 176.09375 33.234375 C 175.421875 32.34375 174.34375 31.859375 173.03125 31.859375 C 170.5625 31.859375 169.03125 33.625 169.03125 36.453125 C 169.03125 39.28125 170.546875 41.03125 172.984375 41.03125 C 175.171875 41.03125 176.609375 39.765625 176.71875 37.765625 L 174.96875 37.765625 C 174.84375 38.875 174.15625 39.515625 173.03125 39.515625 C 171.640625 39.515625 170.828125 38.390625 170.828125 36.484375 C 170.828125 34.546875 171.6875 33.390625 173.09375 33.390625 C 174.140625 33.390625 174.734375 33.890625 174.96875 34.96875 Z M 181.109375 34.15625 C 179.125 34.15625 177.921875 35.46875 177.921875 37.59375 C 177.921875 39.734375 179.125 41.03125 181.125 41.03125 C 183.109375 41.03125 184.328125 39.734375 184.328125 37.640625 C 184.328125 35.453125 183.140625 34.15625 181.109375 34.15625 Z M 181.125 35.515625 C 182.046875 35.515625 182.640625 36.34375 182.640625 37.625 C 182.640625 38.828125 182.03125 39.671875 181.125 39.671875 C 180.21875 39.671875 179.59375 38.84375 179.59375 37.59375 C 179.59375 36.34375 180.21875 35.515625 181.125 35.515625 Z M 188.109375 34.15625 C 186.125 34.15625 184.921875 35.46875 184.921875 37.59375 C 184.921875 39.734375 186.125 41.03125 188.125 41.03125 C 190.109375 41.03125 191.328125 39.734375 191.328125 37.640625 C 191.328125 35.453125 190.140625 34.15625 188.109375 34.15625 Z M 188.125 35.515625 C 189.046875 35.515625 189.640625 36.34375 189.640625 37.625 C 189.640625 38.828125 189.03125 39.671875 188.125 39.671875 C 187.21875 39.671875 186.59375 38.84375 186.59375 37.59375 C 186.59375 36.34375 187.21875 35.515625 188.125 35.515625 Z M 193.890625 36.796875 L 193.890625 32 L 192.203125 32 L 192.203125 40.75 L 193.890625 40.75 L 193.890625 38.625 L 194.5625 37.890625 L 196.109375 40.75 L 198.078125 40.75 L 195.71875 36.71875 L 197.921875 34.265625 L 196.015625 34.265625 Z M 200.984375 34.265625 L 199.296875 34.265625 L 199.296875 40.75 L 200.984375 40.75 Z M 200.984375 32 L 199.296875 32 L 199.296875 33.5 L 200.984375 33.5 Z M 202.25 34.265625 L 202.25 40.75 L 203.9375 40.75 L 203.9375 36.859375 C 203.9375 36.09375 204.46875 35.59375 205.296875 35.59375 C 206.015625 35.59375 206.375 35.984375 206.375 36.75 L 206.375 40.75 L 208.046875 40.75 L 208.046875 36.40625 C 208.046875 34.96875 207.265625 34.15625 205.875 34.15625 C 205 34.15625 204.421875 34.46875 203.9375 35.203125 L 203.9375 34.265625 Z M 213.296875 34.265625 L 213.296875 35.265625 C 212.828125 34.515625 212.3125 34.15625 211.625 34.15625 C 211.0625 34.15625 210.421875 34.453125 209.96875 34.921875 C 209.328125 35.59375 208.984375 36.53125 208.984375 37.671875 C 208.984375 39.65625 210.046875 41.03125 211.59375 41.03125 C 212.296875 41.03125 212.71875 40.796875 213.296875 40.09375 L 213.296875 40.96875 C 213.296875 41.75 212.75 42.28125 211.953125 42.28125 C 211.359375 42.28125 210.984375 42.015625 210.859375 41.53125 L 209.125 41.53125 C 209.140625 42.03125 209.3125 42.375 209.765625 42.734375 C 210.28125 43.15625 210.984375 43.359375 211.890625 43.359375 C 213.765625 43.359375 214.890625 42.46875 214.890625 40.96875 L 214.890625 34.265625 Z M 211.9375 35.5625 C 212.734375 35.5625 213.328125 36.4375 213.328125 37.640625 C 213.328125 38.8125 212.765625 39.625 211.921875 39.625 C 211.1875 39.625 210.671875 38.8125 210.671875 37.640625 C 210.671875 36.421875 211.1875 35.5625 211.9375 35.5625 Z M 222.25 34.40625 L 221.265625 34.40625 L 221.265625 33.765625 C 221.265625 33.4375 221.40625 33.265625 221.71875 33.265625 C 221.875 33.265625 222.03125 33.28125 222.203125 33.296875 L 222.203125 32.03125 C 221.84375 32.015625 221.484375 32 221.234375 32 C 220.125 32 219.578125 32.53125 219.578125 33.625 L 219.578125 34.40625 L 218.671875 34.40625 L 218.671875 35.515625 L 219.578125 35.515625 L 219.578125 40.75 L 221.265625 40.75 L 221.265625 35.515625 L 222.25 35.515625 Z M 226.109375 34.15625 C 224.125 34.15625 222.921875 35.46875 222.921875 37.59375 C 222.921875 39.734375 224.125 41.03125 226.125 41.03125 C 228.109375 41.03125 229.328125 39.734375 229.328125 37.640625 C 229.328125 35.453125 228.140625 34.15625 226.109375 34.15625 Z M 226.125 35.515625 C 227.046875 35.515625 227.640625 36.34375 227.640625 37.625 C 227.640625 38.828125 227.03125 39.671875 226.125 39.671875 C 225.21875 39.671875 224.59375 38.84375 224.59375 37.59375 C 224.59375 36.34375 225.21875 35.515625 226.125 35.515625 Z M 230.25 34.265625 L 230.25 40.75 L 231.9375 40.75 L 231.9375 37.3125 C 231.9375 36.328125 232.421875 35.828125 233.40625 35.828125 C 233.59375 35.828125 233.71875 35.84375 233.9375 35.875 L 233.9375 34.171875 C 233.84375 34.15625 233.8125 34.15625 233.734375 34.15625 C 232.96875 34.15625 232.3125 34.671875 231.9375 35.546875 L 231.9375 34.265625 Z M 241.109375 34.40625 L 240.171875 34.40625 L 240.171875 32.65625 L 238.5 32.65625 L 238.5 34.40625 L 237.671875 34.40625 L 237.671875 35.515625 L 238.5 35.515625 L 238.5 39.5 C 238.5 40.515625 239.03125 41.03125 240.140625 41.03125 C 240.53125 41.03125 240.796875 40.984375 241.109375 40.890625 L 241.109375 39.71875 C 240.9375 39.734375 240.859375 39.75 240.734375 39.75 C 240.28125 39.75 240.171875 39.625 240.171875 39.046875 L 240.171875 35.515625 L 241.109375 35.515625 Z M 245.109375 34.15625 C 243.125 34.15625 241.921875 35.46875 241.921875 37.59375 C 241.921875 39.734375 243.125 41.03125 245.125 41.03125 C 247.109375 41.03125 248.328125 39.734375 248.328125 37.640625 C 248.328125 35.453125 247.140625 34.15625 245.109375 34.15625 Z M 245.125 35.515625 C 246.046875 35.515625 246.640625 36.34375 246.640625 37.625 C 246.640625 38.828125 246.03125 39.671875 245.125 39.671875 C 244.21875 39.671875 243.59375 38.84375 243.59375 37.59375 C 243.59375 36.34375 244.21875 35.515625 245.125 35.515625 Z M 253.359375 40.75 L 255.046875 40.75 L 255.046875 32 L 253.359375 32 L 253.359375 35.109375 C 252.9375 34.46875 252.390625 34.15625 251.578125 34.15625 C 250.03125 34.15625 248.84375 35.65625 248.84375 37.609375 C 248.84375 38.484375 249.109375 39.375 249.546875 40 C 249.984375 40.625 250.78125 41.03125 251.578125 41.03125 C 252.390625 41.03125 252.9375 40.734375 253.359375 40.09375 Z M 251.9375 35.5625 C 252.796875 35.5625 253.359375 36.375 253.359375 37.625 C 253.359375 38.8125 252.78125 39.625 251.9375 39.625 C 251.109375 39.625 250.53125 38.796875 250.53125 37.609375 C 250.53125 36.390625 251.109375 35.5625 251.9375 35.5625 Z M 260.359375 40.75 L 262.046875 40.75 L 262.046875 32 L 260.359375 32 L 260.359375 35.109375 C 259.9375 34.46875 259.390625 34.15625 258.578125 34.15625 C 257.03125 34.15625 255.84375 35.65625 255.84375 37.609375 C 255.84375 38.484375 256.109375 39.375 256.546875 40 C 256.984375 40.625 257.78125 41.03125 258.578125 41.03125 C 259.390625 41.03125 259.9375 40.734375 260.359375 40.09375 Z M 258.9375 35.5625 C 259.796875 35.5625 260.359375 36.375 260.359375 37.625 C 260.359375 38.8125 259.78125 39.625 258.9375 39.625 C 258.109375 39.625 257.53125 38.796875 257.53125 37.609375 C 257.53125 36.390625 258.109375 35.5625 258.9375 35.5625 Z M 264.984375 32 L 263.296875 32 L 263.296875 40.75 L 264.984375 40.75 Z M 271.78125 38.03125 C 271.796875 37.890625 271.796875 37.828125 271.796875 37.75 C 271.796875 37.109375 271.703125 36.5 271.546875 36.046875 C 271.109375 34.875 270.078125 34.15625 268.765625 34.15625 C 266.90625 34.15625 265.765625 35.5 265.765625 37.671875 C 265.765625 39.75 266.890625 41.03125 268.734375 41.03125 C 270.1875 41.03125 271.359375 40.203125 271.734375 38.921875 L 270.078125 38.921875 C 269.875 39.4375 269.40625 39.734375 268.78125 39.734375 C 268.3125 39.734375 267.921875 39.53125 267.6875 39.171875 C 267.53125 38.9375 267.46875 38.65625 267.4375 38.03125 Z M 267.46875 36.921875 C 267.578125 35.921875 268 35.453125 268.734375 35.453125 C 269.515625 35.453125 269.96875 35.96875 270.046875 36.921875 Z M 273.25 34.265625 L 273.25 40.75 L 274.9375 40.75 L 274.9375 37.3125 C 274.9375 36.328125 275.421875 35.828125 276.40625 35.828125 C 276.59375 35.828125 276.71875 35.84375 276.9375 35.875 L 276.9375 34.171875 C 276.84375 34.15625 276.8125 34.15625 276.734375 34.15625 C 275.96875 34.15625 275.3125 34.671875 274.9375 35.546875 L 274.9375 34.265625 Z M 168.5 32 "/>
<path style="fill-rule:nonzero;fill:rgb(52.941176%,70.588235%,90.980392%);fill-opacity:1;stroke-width:2;stroke-linecap:butt;stroke-linejoin:bevel;stroke:rgb(100%,100%,100%);stroke-opacity:1;stroke-miterlimit:10;" d="M 200 55 C 239.054688 55 275.746094 73.695312 298.699219 105.289062 C 321.65625 136.882812 328.097656 177.558594 316.027344 214.699219 L 200 177 Z M 200 55 "/>
<path style="fill-rule:nonzero;fill:rgb(73.333333%,48.235294%,85.882353%);fill-opacity:1;stroke-width:2;stroke-linecap:butt;stroke-linejoin:bevel;stroke:rgb(100%,100%,100%);stroke-opacity:1;stroke-miterlimit:10;" d="M 316.027344 214.699219 C 303.960938 251.839844 274.839844 280.960938 237.699219 293.027344 C 200.558594 305.097656 159.882812 298.65625 128.289062 275.699219 C 96.695312 252.746094 78 216.054688 78 177 C 78 137.945312 96.695312 101.253906 128.289062 78.300781 L 200 177 Z M 316.027344 214.699219 "/>
<path style="fill-rule:nonzero;fill:rgb(39.215686%,90.980392%,23.529412%);fill-opacity:1;stroke-width:2;stroke-linecap:butt;stroke-linejoin:bevel;stroke:rgb(100%,100%,100%);stroke-opacity:1;stroke-miterlimit:10;" d="M 128.289062 78.300781 C 149.132812 63.15625 174.234375 55 200 55 L 200 177 Z M 128.289062 78.300781 "/>
</g>
</svg>
